<?xml version="1.0" encoding="UTF-8" standalone="no"?>
<!-- Created with Inkscape (http://www.inkscape.org/) -->

<svg
   xmlns:dc="http://purl.org/dc/elements/1.1/"
   xmlns:cc="http://creativecommons.org/ns#"
   xmlns:rdf="http://www.w3.org/1999/02/22-rdf-syntax-ns#"
   xmlns:svg="http://www.w3.org/2000/svg"
   xmlns="http://www.w3.org/2000/svg"
   xmlns:xlink="http://www.w3.org/1999/xlink"
   xmlns:sodipodi="http://sodipodi.sourceforge.net/DTD/sodipodi-0.dtd"
   xmlns:inkscape="http://www.inkscape.org/namespaces/inkscape"
   width="210mm"
   height="297mm"
   id="svg2861"
   version="1.1"
   inkscape:version="0.47 r22583"
   sodipodi:docname="walkbitmap2a.svg">

  <g
     inkscape:label="Ebene 1"
     inkscape:groupmode="layer"
     id="layer7854"
     >
     <g transform="translate(0,5
)" x="0" y="-275">   
    
  <g
     inkscape:label="Ebene 1"
     inkscape:groupmode="layer"
     id="layer2">
    <g transform="translate(0,0)"> 
      <path
         style="fill:#333338;fill-opacity:1;stroke:#1c1c49;stroke-width:0.11658414;stroke-linejoin:round;stroke-miterlimit:4;stroke-opacity:1;visibility:hidden"
         d="M 130.375 191.125 C 127.55001 191.125 125.25 193.28597 125.25 195.9375 C 125.25 197.97533 126.62271 199.7094 128.53125 200.40625 C 127.94638 201.04667 127.4678 201.96683 127.15625 202.96875 C 125.32891 203.63805 123.78027 206.42431 123.46875 209.875 C 123.44767 210.10854 123.44645 210.33359 123.4375 210.5625 C 123.42432 210.12742 123.42637 209.84375 123.40625 209.84375 C 123.36601 209.84375 123.3125 210.92217 123.3125 212.25 C 123.3125 213.57783 123.36601 214.65625 123.40625 214.65625 C 123.44649 214.65625 123.46875 213.57783 123.46875 212.25 C 123.51795 212.7765 123.60664 213.27788 123.71875 213.75 C 123.38842 215.03244 123.1875 216.64869 123.1875 218.4375 C 123.1875 219.77212 123.30676 221.01116 123.5 222.09375 L 122.84375 222.65625 L 122.375 224.625 L 123.5 225.5625 C 122.48538 227.19053 121.60143 230.02052 121.21875 233.28125 C 121.16007 233.78129 121.12587 234.26787 121.09375 234.75 L 114.34375 244.59375 C 113.66829 245.11407 109.94041 252.53318 110.625 253.5625 L 110.65625 253.5625 L 110.65625 253.59375 C 110.68955 253.60735 110.70925 253.59291 110.75 253.59375 C 112.01545 253.61785 116.77626 247.64578 117 246.78125 L 121.28125 239.65625 C 121.4326 240.57499 121.65524 241.38042 121.9375 241.96875 C 120.92015 243.59466 120.09652 246.50375 119.78125 249.875 C 119.2867 255.16324 120.27732 259.55765 122 259.71875 C 123.72268 259.87985 125.50545 255.72574 126 250.4375 C 126.34442 246.75462 125.96832 243.50716 125.125 241.8125 C 126.17029 240.20385 127.04581 237.33752 127.4375 234 C 127.45122 233.88308 127.4565 233.77231 127.46875 233.65625 C 127.60007 234.13459 127.74363 234.60244 127.90625 235.09375 C 128.8873 238.05767 130.2038 240.53684 131.46875 241.96875 C 130.94304 243.81293 130.87078 246.72399 131.375 249.9375 C 132.19831 255.18461 134.25946 259.23695 135.96875 258.96875 C 137.67804 258.70055 138.38581 254.21586 137.5625 248.96875 C 137.05142 245.7115 136.08246 242.92772 135 241.34375 C 135.30404 239.45171 134.92361 236.38746 133.84375 233.125 C 133.74001 232.8116 133.64234 232.5207 133.53125 232.21875 C 134.00383 231.73499 133.84851 229.89594 133.15625 227.375 C 134.23532 228.91911 135.17154 229.8748 135.65625 229.8125 C 136.51464 229.70216 135.61641 226.46474 133.65625 222.5625 C 133.52088 222.29301 133.38789 222.04206 133.25 221.78125 L 134.59375 219.90625 C 134.55215 219.88525 134.50923 219.8322 134.46875 219.8125 C 134.64623 219.53382 134.71875 219.19863 134.71875 218.84375 C 134.71875 218.35439 134.53595 217.91791 134.21875 217.59375 C 134.72518 217.64255 135.25155 217.40835 135.59375 216.875 C 136.03423 216.18847 136.0286 215.25881 135.59375 214.6875 L 135.5625 214.6875 C 134.95451 214.38556 134.19056 214.62577 133.75 215.3125 C 133.37376 215.8989 133.35691 216.65868 133.625 217.21875 C 133.41532 217.13305 133.17801 217.0625 132.9375 217.0625 C 132.10312 217.0625 131.42277 217.6401 131.21875 218.40625 C 131.16704 218.33033 131.11363 218.26083 131.0625 218.1875 C 131.42167 216.85174 131.48348 214.8122 131.1875 212.53125 C 131.34784 211.89164 131.49864 211.23862 131.5625 210.53125 C 131.76004 208.34311 131.39493 206.35427 130.6875 204.9375 C 130.91975 204.47708 131.14157 203.98872 131.28125 203.46875 C 131.50309 203.7664 131.70011 204.09004 131.84375 204.46875 C 131.94245 204.36198 132.06037 204.26896 132.15625 204.15625 C 132.52625 204.30653 132.91799 204.22223 133.21875 203.9375 C 133.63978 203.53888 133.72368 202.86125 133.4375 202.3125 C 133.4488 202.293 133.45755 202.2697 133.46875 202.25 C 133.84031 202.1682 134.13728 202.02476 134.28125 201.84375 C 134.46415 201.61379 134.36508 201.36342 134.0625 201.15625 C 134.49257 200.98786 134.77532 200.6888 134.75 200.375 C 134.7383 200.22999 134.6528 200.0827 134.53125 199.96875 C 134.59425 199.8036 134.65974 199.63815 134.71875 199.46875 C 135.01789 199.61785 135.26017 199.65735 135.4375 199.5625 C 135.87485 199.32865 135.819 198.38359 135.375 197.125 C 135.4708 196.67903 135.55628 196.21453 135.625 195.75 C 135.5991 195.754 135.55735 195.77705 135.53125 195.78125 C 135.52925 195.54587 135.51605 195.29611 135.46875 195.0625 C 135.37315 194.59088 135.18441 194.13909 134.9375 193.75 C 134.09383 192.18722 132.36924 191.125 130.375 191.125 z M 126.78125 224.65625 C 126.87199 225.02068 126.98346 225.35201 127.09375 225.65625 C 127.04981 225.73655 127.03793 225.84536 127 225.9375 C 126.87476 225.57478 126.75151 225.23226 126.59375 224.96875 C 126.65435 224.86592 126.72398 224.77516 126.78125 224.65625 z "
         id="path2852" >
      <set attributeName="visibility" attributeType="CSS" to="visible" begin="1s" dur="0.2s" fill="freeze"/>
      <set attributeName="visibility" attributeType="CSS" to="hidden" begin="1.2s" dur="0.4s" fill="freeze"/>     
            
      <set attributeName="visibility" attributeType="CSS" to="visible" begin="2.8s" dur="0.2s" fill="freeze"/>
      </path>  
      </g>
   </g>
   <g
     inkscape:label="Ebene 1"
     inkscape:groupmode="layer"
     id="layer3">
    <g transform="translate(0,0)">
       <path
          style="fill:#333338;fill-opacity:1;stroke:#1c1c49;stroke-width:0.11658414;stroke-linejoin:round;stroke-miterlimit:4;stroke-opacity:1;stroke-dasharray:none;visibility:hidden"
          d="M 130.1875 191.28125 C 127.83163 191.56712 125.94108 193.37292 125.78125 195.6875 C 125.64396 197.6757 126.83728 199.49245 128.625 200.34375 C 128.00829 200.98627 127.48117 201.92383 127.15625 202.96875 C 125.32891 203.63805 123.78027 206.42431 123.46875 209.875 C 123.44767 210.10854 123.44645 210.33359 123.4375 210.5625 C 123.42432 210.12742 123.42637 209.84375 123.40625 209.84375 C 123.36601 209.84375 123.3125 210.92217 123.3125 212.25 C 123.3125 212.77872 123.33498 213.19684 123.34375 213.59375 C 122.82461 215.70086 122.69901 217.54752 123.03125 218.5625 C 122.88482 219.68638 122.77353 221.01382 122.75 222.46875 C 122.74654 222.6827 122.75029 222.88294 122.75 223.09375 L 122.375 224.71875 L 122.8125 225.0625 C 122.83923 225.63362 122.85738 226.173 122.90625 226.6875 C 122.15253 228.34621 121.52466 230.67462 121.21875 233.28125 C 121.14633 233.89837 121.09468 234.50494 121.0625 235.09375 L 114.59375 244.78125 C 113.9246 245.30967 110.27182 252.76025 110.96875 253.78125 L 111 253.78125 L 111 253.8125 C 111.0335 253.8257 111.05301 253.8115 111.09375 253.8125 C 112.35939 253.8215 117.03668 247.80466 117.25 246.9375 L 121.3125 239.96875 C 121.46081 240.75691 121.68663 241.44585 121.9375 241.96875 C 120.92015 243.59466 120.09652 246.50375 119.78125 249.875 C 119.2867 255.16324 120.27732 259.55765 122 259.71875 C 123.72268 259.87985 125.50545 255.72574 126 250.4375 C 126.34442 246.75462 125.96832 243.50716 125.125 241.8125 C 126.17029 240.20385 127.04581 237.33752 127.4375 234 C 127.45122 233.88308 127.4565 233.77231 127.46875 233.65625 C 127.60007 234.13459 127.74363 234.60244 127.90625 235.09375 C 128.87608 238.02378 130.18555 240.46706 131.4375 241.90625 C 130.77019 243.7009 130.43027 246.51102 130.625 249.6875 C 130.94999 254.98886 132.61679 259.19962 134.34375 259.09375 C 136.07071 258.98788 137.19999 254.61386 136.875 249.3125 C 136.67088 245.98291 135.94419 243.07649 135 241.40625 C 135.32286 239.51921 134.93551 236.42342 133.84375 233.125 C 133.55322 232.24726 133.24747 231.43468 132.90625 230.65625 L 133.53125 228.625 L 132.3125 226.8125 L 130.75 225.71875 C 130.69761 225.5091 130.65075 225.30778 130.59375 225.09375 C 130.54803 224.92206 130.48484 224.76319 130.4375 224.59375 C 130.46394 224.48511 130.50669 224.39458 130.53125 224.28125 C 130.67633 224.3143 130.81277 224.31438 130.96875 224.3125 C 131.12526 224.3105 131.26221 224.2864 131.40625 224.25 L 134.53125 219.84375 C 134.48935 219.82325 134.44697 219.7692 134.40625 219.75 C 134.58037 219.4692 134.66052 219.1361 134.65625 218.78125 C 134.65025 218.29193 134.44608 217.85157 134.125 217.53125 C 134.63198 217.57395 135.16425 217.31868 135.5 216.78125 C 135.93218 216.08946 135.91043 215.19103 135.46875 214.625 C 135.46675 214.622 135.47107 214.59665 135.46875 214.59375 L 135.4375 214.59375 C 134.82592 214.29915 134.05726 214.58925 133.625 215.28125 C 133.25585 215.87213 133.25643 216.59945 133.53125 217.15625 C 133.32055 217.07305 133.08425 217.02835 132.84375 217.03125 C 131.85097 217.04315 131.05055 217.85096 131.0625 218.84375 C 131.0675 219.24608 131.2106 219.6094 131.4375 219.90625 C 131.26003 220.17019 131.08622 220.46636 130.90625 220.75 C 130.91295 220.52041 130.9375 220.29767 130.9375 220.0625 C 130.9375 218.08268 130.67723 216.30067 130.28125 214.96875 C 130.92948 213.7596 131.40812 212.24133 131.5625 210.53125 C 131.76004 208.34311 131.39493 206.35427 130.6875 204.9375 C 130.90551 204.50529 131.1127 204.0486 131.25 203.5625 C 131.47189 203.89099 131.65518 204.27051 131.78125 204.6875 C 131.88708 204.5878 131.99033 204.48084 132.09375 204.375 C 132.45251 204.55041 132.86784 204.51334 133.1875 204.25 C 133.63499 203.88134 133.7477 203.19216 133.5 202.625 C 133.5126 202.6063 133.55 202.5814 133.5625 202.5625 C 133.93881 202.5065 134.2189 202.38941 134.375 202.21875 C 134.57331 202.00193 134.50634 201.72753 134.21875 201.5 C 134.65939 201.36164 134.94114 201.09605 134.9375 200.78125 C 134.9355 200.63578 134.86343 200.49705 134.75 200.375 C 134.8242 200.21458 134.89821 200.07118 134.96875 199.90625 C 135.25691 200.0756 135.50406 200.11365 135.6875 200.03125 C 136.13992 199.82808 136.16874 198.87994 135.8125 197.59375 C 135.93879 197.15544 136.02444 196.70869 136.125 196.25 C 136.0989 196.252 136.0888 196.247 136.0625 196.25 C 136.0767 196.01505 136.06245 195.76757 136.03125 195.53125 C 135.96835 195.05417 135.81327 194.62392 135.59375 194.21875 C 134.85974 192.60156 133.20825 191.41863 131.21875 191.28125 C 130.86647 191.25692 130.52405 191.24041 130.1875 191.28125 z M 123.46875 212.25 C 123.48619 212.43665 123.50563 212.63207 123.53125 212.8125 C 123.51331 212.87518 123.48599 212.93771 123.46875 213 C 123.4717 212.73889 123.46875 212.54497 123.46875 212.25 z M 126.75 224.71875 C 126.84978 225.09104 126.95554 225.45184 127.0625 225.8125 C 127.04338 225.85316 127.0178 225.89427 127 225.9375 C 126.87476 225.57478 126.75151 225.23226 126.59375 224.96875 C 126.64277 224.88558 126.70314 224.8125 126.75 224.71875 z "
          id="path2852" >
    <set attributeName="visibility" attributeType="CSS" to="visible" begin="1.2s" dur="0.5s" fill="freeze"/>
    <set attributeName="visibility" attributeType="CSS" to="hidden" begin="1.4s" dur="0.4s" fill="freeze"/> 
    
    </path>  
    </g>
  </g>    
  <g
     inkscape:label="Ebene 1"
     inkscape:groupmode="layer"
     id="layer4">
    <g transform="translate(0,0)">
       <path
          style="fill:#333338;fill-opacity:1;stroke:#1c1c49;stroke-width:0.11658414;stroke-linejoin:round;stroke-miterlimit:4;stroke-opacity:1;stroke-dasharray:none;visibility:hidden"
          d="M 131.34375 191.28125 C 128.5273 191.06173 126.08106 193.04399 125.875 195.6875 C 125.72064 197.66798 126.85469 199.44218 128.625 200.3125 C 128.00164 200.9551 127.48395 201.91488 127.15625 202.96875 C 125.32891 203.63805 123.78027 206.42431 123.46875 209.875 C 123.44767 210.10854 123.44645 210.33359 123.4375 210.5625 C 123.42432 210.12742 123.42637 209.84375 123.40625 209.84375 C 123.36601 209.84375 123.3125 210.92217 123.3125 212.25 C 123.3125 212.77872 123.33498 213.19684 123.34375 213.59375 C 122.82982 215.67969 122.71097 217.51055 123.03125 218.53125 C 123.0345 218.54161 123.02791 218.5523 123.03125 218.5625 C 122.88482 219.68638 122.77353 221.01382 122.75 222.46875 C 122.74671 222.67201 122.75042 222.86207 122.75 223.0625 L 122.375 224.8125 L 122.8125 225.15625 C 122.83898 225.6943 122.86 226.20057 122.90625 226.6875 C 122.15253 228.34621 121.52466 230.67462 121.21875 233.28125 C 121.12936 234.04293 121.09097 234.7834 121.0625 235.5 L 114.9375 245 C 114.27735 245.53962 110.75471 253.08464 111.46875 254.09375 L 111.5 254.09375 C 111.5337 254.10635 111.55304 254.09375 111.59375 254.09375 C 112.85936 254.08145 117.45757 247.99564 117.65625 247.125 L 121.40625 240.40625 C 121.49401 240.79013 121.60333 241.15516 121.71875 241.46875 C 120.53046 242.95223 119.41353 245.99349 118.90625 249.59375 C 118.1652 254.85311 118.97422 259.28985 120.6875 259.53125 C 122.40078 259.77265 124.38395 255.72811 125.125 250.46875 C 125.59956 247.10074 125.43353 244.06422 124.8125 242.25 C 125.98388 240.76015 127.00839 237.65636 127.4375 234 C 127.43997 233.97893 127.43508 233.95855 127.4375 233.9375 C 127.62847 233.98022 127.81745 233.90156 127.96875 233.6875 C 128.13757 234.16102 128.29807 234.64055 128.5 235.125 C 129.74132 238.10307 131.31453 240.53908 132.71875 241.84375 C 132.17674 243.68392 132.08961 246.63042 132.59375 249.875 C 133.40924 255.12333 135.47782 259.14065 137.1875 258.875 C 138.89718 258.60935 139.62799 254.15458 138.8125 248.90625 C 138.2742 245.44185 137.19154 242.52033 136.03125 241 C 136.25517 239.10472 135.6503 236.00326 134.28125 232.71875 C 133.9158 231.84199 133.50433 231.01781 133.09375 230.25 L 133.59375 228.5625 L 132.34375 226.75 L 130.53125 225.53125 L 130.65625 225.34375 L 130.28125 225.1875 C 130.36988 224.89244 130.45873 224.5884 130.53125 224.25 C 130.67686 224.2806 130.81283 224.28576 130.96875 224.28125 C 131.12521 224.27625 131.26284 224.25755 131.40625 224.21875 L 134.4375 219.75 C 134.3953 219.7302 134.35349 219.67475 134.3125 219.65625 C 134.48186 219.37255 134.57275 219.04223 134.5625 218.6875 C 134.5482 218.19835 134.35768 217.75236 134.03125 217.4375 C 134.53887 217.4717 135.04835 217.23051 135.375 216.6875 C 135.79545 215.98852 135.73245 215.0585 135.28125 214.5 C 135.27925 214.497 135.28401 214.47165 135.28125 214.46875 C 134.66479 214.1845 133.88928 214.48823 133.46875 215.1875 C 133.10961 215.78452 133.12212 216.51041 133.40625 217.0625 C 133.19418 216.9829 132.95917 216.9618 132.71875 216.96875 C 131.72631 216.99735 130.94007 217.7888 130.96875 218.78125 C 130.98055 219.18344 131.14313 219.55077 131.375 219.84375 C 131.22554 220.07433 131.05778 220.34405 130.90625 220.59375 C 130.91028 220.4152 130.9375 220.24433 130.9375 220.0625 C 130.9375 218.08268 130.67723 216.30067 130.28125 214.96875 C 130.92948 213.7596 131.40812 212.24133 131.5625 210.53125 C 131.76004 208.34311 131.39493 206.35427 130.6875 204.9375 C 130.90551 204.50529 131.1127 204.0486 131.25 203.5625 C 131.4759 203.898 131.6561 204.29116 131.78125 204.71875 C 131.88796 204.61995 131.9894 204.51117 132.09375 204.40625 C 132.45095 204.58482 132.86552 204.54175 133.1875 204.28125 C 133.63823 203.91656 133.77392 203.22558 133.53125 202.65625 C 133.54405 202.63765 133.5498 202.61255 133.5625 202.59375 C 133.93929 202.54105 134.24865 202.41927 134.40625 202.25 C 134.60647 202.03494 134.50431 201.79257 134.21875 201.5625 C 134.66059 201.42805 134.9696 201.15857 134.96875 200.84375 C 134.96803 200.69826 134.89356 200.56055 134.78125 200.4375 C 134.85685 200.27774 134.92801 200.1018 135 199.9375 C 135.28665 200.10939 135.53459 200.17452 135.71875 200.09375 C 136.17295 199.89459 136.1886 198.94554 135.84375 197.65625 C 135.97391 197.21908 136.08289 196.77029 136.1875 196.3125 C 136.1614 196.3145 136.1513 196.3105 136.125 196.3125 C 136.1413 196.07769 136.12265 195.83034 136.09375 195.59375 C 136.03505 195.11613 135.90342 194.68835 135.6875 194.28125 C 134.96782 192.65763 133.33195 191.43623 131.34375 191.28125 z M 123.46875 212.25 C 123.48517 212.42575 123.50757 212.611 123.53125 212.78125 C 123.53272 212.79181 123.52975 212.80196 123.53125 212.8125 C 123.51331 212.87518 123.48599 212.93771 123.46875 213 C 123.4717 212.73889 123.46875 212.54497 123.46875 212.25 z "
          id="path2852" >
       <set attributeName="visibility" attributeType="CSS" to="visible" begin="1.4s" dur="0.2s" fill="freeze"/>
       <set attributeName="visibility" attributeType="CSS" to="hidden" begin="1.6s" dur="0.4s" fill="freeze"/> 
      
       </path>  
       </g>
   </g>    
   <g
     inkscape:label="Ebene 1"
     inkscape:groupmode="layer"
     id="layer5">
    <g transform="translate(0,0)">
    <path
       style="fill:#333338;fill-opacity:1;stroke:#1c1c49;stroke-width:0.11658414;stroke-linejoin:round;stroke-miterlimit:4;stroke-opacity:1;stroke-dasharray:none;visibility:hidden"
       d="M 130.625 191.25 C 127.80058 191.1932 125.45958 193.31775 125.40625 195.96875 C 125.36556 197.99245 126.6889 199.72481 128.5625 200.46875 C 127.96295 201.11049 127.47397 202.04074 127.15625 203.0625 C 125.32891 203.7318 123.78027 206.51806 123.46875 209.96875 C 123.44767 210.20229 123.44645 210.42734 123.4375 210.65625 C 123.42432 210.22117 123.42637 209.9375 123.40625 209.9375 C 123.36601 209.9375 123.3125 211.01592 123.3125 212.34375 C 123.3125 212.86286 123.33527 213.29454 123.34375 213.6875 C 122.9026 215.47153 122.77101 217.03288 122.9375 218.09375 C 122.95646 218.30015 122.99437 218.48047 123.03125 218.65625 C 123.03544 218.67621 123.02683 218.69921 123.03125 218.71875 C 122.88782 219.83412 122.77325 221.12512 122.75 222.5625 C 122.74688 222.75513 122.75054 222.93489 122.75 223.125 L 122.375 224.9375 L 122.78125 225.25 C 122.79604 225.55058 122.82264 225.83939 122.84375 226.125 C 122.18098 227.89857 121.90214 230.77913 122.15625 234 L 115.03125 245.15625 C 114.37324 245.69849 110.87571 253.24373 111.59375 254.25 L 111.625 254.25 L 111.625 254.28125 C 111.6587 254.29375 111.67805 254.28125 111.71875 254.28125 C 112.9843 254.26395 117.55478 248.15267 117.75 247.28125 L 122.8125 238.15625 C 123.09132 239.32249 123.42753 240.32404 123.8125 241.15625 C 122.45975 242.5142 121.00517 245.20367 119.96875 248.46875 C 118.36181 253.53114 118.38214 258.03903 120.03125 258.5625 C 121.68036 259.08597 124.33056 255.40614 125.9375 250.34375 C 126.86656 247.41691 127.22551 244.71153 127.0625 242.8125 C 128.16877 241.40781 128.74869 237.79585 128.40625 233.625 C 128.63657 234.13949 128.88265 234.6622 129.15625 235.1875 C 130.61458 237.98743 132.35501 240.20467 133.84375 241.40625 C 133.42361 243.27826 133.54562 246.24837 134.28125 249.46875 C 135.46405 254.64669 137.782 258.54155 139.46875 258.15625 C 141.1555 257.77095 141.5578 253.24044 140.375 248.0625 C 139.6174 244.74594 138.38355 241.97334 137.15625 240.5 C 137.24917 238.59924 136.38856 235.48721 134.71875 232.28125 C 134.25726 231.39521 133.75015 230.60466 133.25 229.84375 L 133.625 228.625 L 132.375 226.84375 L 130.53125 225.625 L 130.65625 225.4375 L 130.28125 225.28125 C 130.36988 224.98619 130.45873 224.68215 130.53125 224.34375 C 130.67698 224.37377 130.81285 224.38013 130.96875 224.375 C 131.12519 224.369 131.26299 224.3518 131.40625 224.3125 L 134.4375 219.8125 C 134.3952 219.7929 134.35358 219.7684 134.3125 219.75 C 134.48073 219.46563 134.54291 219.13593 134.53125 218.78125 C 134.51505 218.29216 134.32768 217.84481 134 217.53125 C 134.50775 217.56345 135.01926 217.2943 135.34375 216.75 C 135.76143 216.04936 135.70342 215.15045 135.25 214.59375 C 135.248 214.59075 135.25286 214.5654 135.25 214.5625 L 135.21875 214.5625 C 134.60117 214.2807 133.85525 214.58031 133.4375 215.28125 C 133.08073 215.87969 133.08866 216.60529 133.375 217.15625 C 133.16262 217.07745 132.92789 217.05459 132.6875 217.0625 C 131.69518 217.095 130.90489 217.88267 130.9375 218.875 C 130.9509 219.27714 131.11072 219.64545 131.34375 219.9375 C 131.19562 220.16804 131.05638 220.43787 130.90625 220.6875 C 130.91028 220.50895 130.9375 220.33808 130.9375 220.15625 C 130.9375 218.17643 130.67723 216.39442 130.28125 215.0625 C 130.92948 213.85335 131.40812 212.33508 131.5625 210.625 C 131.75857 208.45317 131.41553 206.47741 130.71875 205.0625 C 130.94566 204.61186 131.11142 204.10174 131.25 203.59375 C 131.477 203.90381 131.70245 204.22861 131.84375 204.625 C 131.94459 204.52021 132.02687 204.42326 132.125 204.3125 C 132.4919 204.47018 132.91232 204.40367 133.21875 204.125 C 133.6477 203.73494 133.74383 203.0544 133.46875 202.5 C 133.48045 202.4807 133.4885 202.457 133.5 202.4375 C 133.87313 202.3632 134.16492 202.20933 134.3125 202.03125 C 134.49999 201.80501 134.39213 201.55697 134.09375 201.34375 C 134.5271 201.18405 134.8315 200.90799 134.8125 200.59375 C 134.8035 200.44854 134.71301 200.30388 134.59375 200.1875 C 134.66005 200.02365 134.71885 199.85568 134.78125 199.6875 C 135.07733 199.84258 135.3208 199.90375 135.5 199.8125 C 135.94196 199.58749 135.91857 198.61102 135.5 197.34375 C 135.60474 196.8998 135.7032 196.46305 135.78125 196 C 135.75535 196.004 135.7136 195.996 135.6875 196 C 135.6905 195.76464 135.6674 195.51578 135.625 195.28125 C 135.5389 194.80781 135.36403 194.39397 135.125 194 C 134.31293 192.42056 132.61882 191.29012 130.625 191.25 z M 123.46875 212.34375 C 123.48619 212.5304 123.50563 212.72582 123.53125 212.90625 C 123.51092 212.97699 123.48819 213.05475 123.46875 213.125 C 123.47182 212.85895 123.46875 212.64543 123.46875 212.34375 z "
       id="path2852" >
    <set attributeName="visibility" attributeType="CSS" to="visible" begin="1.6s" dur="0.4s" fill="freeze"/>
    <set attributeName="visibility" attributeType="CSS" to="hidden" begin="1.8s" dur="0.2s" fill="freeze"/> 
   
    </path>  
    </g>
   </g>    
   <g
     inkscape:label="Ebene 1"
     inkscape:groupmode="layer"
     id="layer6">
    <g transform="translate(0,5)">
      <path
         style="fill:#333338;fill-opacity:1;stroke:#1c1c49;stroke-width:0.11658414;stroke-linejoin:round;stroke-miterlimit:4;stroke-opacity:1;stroke-dasharray:none;visibility:hidden"
         d="M 130.625 191.15625 C 127.80058 191.09945 125.45958 193.224 125.40625 195.875 C 125.36556 197.8987 126.6889 199.63106 128.5625 200.375 C 127.96482 201.01661 127.47318 201.94951 127.15625 202.96875 C 125.32891 203.63805 123.78027 206.42431 123.46875 209.875 C 123.44767 210.10854 123.44645 210.33359 123.4375 210.5625 C 123.42432 210.12742 123.42637 209.84375 123.40625 209.84375 C 123.3839 209.84375 123.35711 210.22704 123.34375 210.75 C 123.24834 210.90671 123.15595 211.05692 123.0625 211.21875 C 121.52316 213.88435 120.71454 216.47961 120.875 217.875 C 120.51469 218.95912 120.176 220.24515 119.875 221.6875 C 118.9829 225.9623 118.85295 229.80252 119.59375 230.25 C 120.33455 230.69748 121.63915 227.5873 122.53125 223.3125 C 122.85083 221.78113 123.06973 220.3131 123.1875 219.03125 C 123.21605 220.16455 123.32982 221.22353 123.5 222.15625 L 122.8125 222.78125 L 122.375 224.71875 L 123.5625 225.65625 C 122.57952 227.29737 121.84127 230.31731 121.6875 233.8125 C 121.68044 233.97293 121.69194 234.12264 121.6875 234.28125 L 114.6875 244.8125 C 114.0203 245.34339 110.39305 252.82534 111.09375 253.84375 L 111.09375 253.875 C 111.12725 253.8881 111.17811 253.874 111.21875 253.875 C 112.48441 253.879 117.13364 247.8367 117.34375 246.96875 L 121.9375 239.03125 C 122.07403 239.86207 122.28342 240.58299 122.5 241.21875 C 121.33127 242.73518 120.16218 245.34906 119.40625 248.4375 C 118.14351 253.59652 118.47566 258.08865 120.15625 258.5 C 121.83684 258.91135 124.23726 255.06527 125.5 249.90625 C 126.24174 246.8758 126.40456 244.10374 126.09375 242.21875 C 127.06585 240.56933 127.78488 237.56292 127.9375 234.09375 C 127.94173 233.99749 127.93421 233.90812 127.9375 233.8125 C 128.09139 234.24876 128.25589 234.67957 128.4375 235.125 C 129.50922 237.7535 130.83913 239.92299 132.09375 241.3125 C 131.43666 243.11504 131.18366 246.08638 131.5 249.375 C 132.00857 254.66191 133.809 258.79067 135.53125 258.625 C 137.2535 258.45933 138.22732 254.03691 137.71875 248.75 C 137.43056 245.75409 136.71453 243.18779 135.84375 241.5 C 136.25038 239.67597 135.67292 236.31649 134.21875 232.75 C 133.85331 231.85371 133.47543 231.03322 133.0625 230.25 L 133.5625 228.625 L 132.3125 226.8125 L 130.53125 225.5625 L 130.65625 225.375 L 130.28125 225.1875 C 130.36711 224.90164 130.46047 224.60787 130.53125 224.28125 C 130.67645 224.31377 130.81278 224.31496 130.96875 224.3125 C 131.12527 224.3095 131.26234 224.2868 131.40625 224.25 L 134.5 219.8125 C 134.4581 219.7922 134.41579 219.7691 134.375 219.75 C 134.54808 219.46855 134.63058 219.10483 134.625 218.75 C 134.617 218.26071 134.44726 217.85037 134.125 217.53125 C 134.63213 217.57215 135.16624 217.28867 135.5 216.75 C 135.92962 216.05662 135.88135 215.15814 135.4375 214.59375 C 135.4355 214.59075 135.43991 214.5654 135.4375 214.5625 L 135.40625 214.5625 C 134.79359 214.27017 134.02344 214.55626 133.59375 215.25 C 133.22678 215.84224 133.22313 216.56922 133.5 217.125 C 133.289 217.0426 133.05299 216.99621 132.8125 217 C 131.81977 217.0155 131.04689 217.81976 131.0625 218.8125 C 131.0695 219.21481 131.20951 219.57901 131.4375 219.875 C 131.261 220.13961 131.08518 220.43445 130.90625 220.71875 C 130.91237 220.49931 130.9375 220.287 130.9375 220.0625 C 130.9375 218.08268 130.67723 216.30067 130.28125 214.96875 C 130.92948 213.7596 131.40812 212.24133 131.5625 210.53125 C 131.76004 208.34311 131.39493 206.35427 130.6875 204.9375 C 130.91405 204.48836 131.11116 204.00641 131.25 203.5 C 131.47262 203.80697 131.70452 204.14066 131.84375 204.53125 C 131.94459 204.42646 132.02687 204.32951 132.125 204.21875 C 132.4919 204.37643 132.91232 204.30992 133.21875 204.03125 C 133.6477 203.64119 133.74383 202.96065 133.46875 202.40625 C 133.48045 202.38695 133.4885 202.36325 133.5 202.34375 C 133.87313 202.26945 134.16492 202.11558 134.3125 201.9375 C 134.49999 201.71126 134.39213 201.46322 134.09375 201.25 C 134.5271 201.0903 134.8315 200.81424 134.8125 200.5 C 134.8035 200.35479 134.71301 200.21013 134.59375 200.09375 C 134.66005 199.9299 134.71885 199.76193 134.78125 199.59375 C 135.07733 199.74883 135.3208 199.77875 135.5 199.6875 C 135.94196 199.46249 135.91857 198.51727 135.5 197.25 C 135.60474 196.80605 135.7032 196.3693 135.78125 195.90625 C 135.75535 195.91025 135.7136 195.90225 135.6875 195.90625 C 135.6905 195.67089 135.6674 195.42203 135.625 195.1875 C 135.5389 194.71406 135.36403 194.30022 135.125 193.90625 C 134.31293 192.32681 132.61882 191.19637 130.625 191.15625 z "
         id="path2852" > 
    <set attributeName="visibility" attributeType="CSS" to="visible" begin="1.8s" dur="0.5s" fill="freeze"/>
    <set attributeName="visibility" attributeType="CSS" to="hidden" begin="2s" dur="0.4s" fill="freeze"/> 
   
    </path>  
    </g>
   </g>    
   <g
     inkscape:label="Ebene 1"
     inkscape:groupmode="layer"
     id="layer7">
    <g transform="translate(0,0)">
      <path
         style="fill:#333338;fill-opacity:1;stroke:#1c1c49;stroke-width:0.226229;stroke-linejoin:round;stroke-miterlimit:4;stroke-opacity:1;stroke-dasharray:none;visibility:hidden"
         d="M 129.84375 191.6875 C 127.0193 191.7429 124.76055 193.91147 124.8125 196.5625 C 124.85179 198.56889 126.21752 200.25672 128.09375 200.9375 C 127.69557 201.50981 127.38734 202.22558 127.15625 202.96875 C 125.32891 203.63805 123.78027 206.42431 123.46875 209.875 C 123.45723 210.0026 123.44537 210.12371 123.4375 210.25 C 123.4279 210.09626 123.41764 209.84375 123.40625 209.84375 C 123.39047 209.84375 123.35568 210.12498 123.34375 210.40625 C 123.19731 210.6224 123.04925 210.83549 122.90625 211.0625 C 121.26563 213.66699 120.36202 216.19322 120.46875 217.59375 C 120.06432 218.6674 119.67111 219.9356 119.3125 221.375 C 118.2568 225.61236 117.99569 229.43064 118.71875 229.90625 C 119.44181 230.38186 120.8818 227.33111 121.9375 223.09375 C 122.39769 221.24662 122.6994 219.50869 122.84375 218.0625 C 122.95513 217.98541 123.07189 217.903 123.1875 217.8125 C 123.18195 218.0216 123.1875 218.22383 123.1875 218.4375 C 123.1875 219.77212 123.30676 221.01116 123.5 222.09375 L 122.84375 222.65625 L 122.375 224.625 L 123.53125 225.5625 C 122.83034 226.89294 122.5373 229.40657 122.75 232.375 L 114.34375 244.59375 C 113.66772 245.11334 109.91028 252.53245 110.59375 253.5625 L 110.625 253.5625 C 110.6583 253.5762 110.67811 253.56082 110.71875 253.5625 C 111.98417 253.5878 116.74407 247.64554 116.96875 246.78125 L 123.28125 236.28125 C 123.66288 238.09598 124.18895 239.69718 124.78125 240.9375 C 123.51012 242.22353 122.12228 244.14952 120.9375 246.4375 C 118.49519 251.15398 117.77607 255.61065 119.3125 256.40625 C 120.74596 257.14853 123.6338 254.41658 126 250.21875 C 125.47682 254.53201 126.08694 257.96507 127.5625 258.25 C 129.26132 258.57804 131.46175 254.62123 132.46875 249.40625 C 132.99721 246.66949 133.08548 244.15411 132.8125 242.3125 C 133.44025 240.50804 133.50584 237.35687 132.90625 233.875 C 132.84991 233.54786 132.78416 233.25429 132.71875 232.9375 C 133.38145 232.99307 133.52343 231.5928 133.21875 229.4375 L 133.46875 228.6875 L 132.96875 227.9375 C 132.76442 226.93797 132.47462 225.85057 132.125 224.6875 C 132.02948 224.36973 131.9132 224.05929 131.8125 223.75 L 134.59375 219.90625 C 134.55215 219.88525 134.50923 219.86355 134.46875 219.84375 C 134.64654 219.56525 134.71836 219.22987 134.71875 218.875 C 134.71898 218.38564 134.53559 217.91824 134.21875 217.59375 C 134.72512 217.64315 135.28222 217.40798 135.625 216.875 C 136.06622 216.18894 136.02803 215.29053 135.59375 214.71875 C 135.59175 214.71575 135.59572 214.6904 135.59375 214.6875 L 135.5625 214.6875 C 134.95484 214.38491 134.1913 214.65736 133.75 215.34375 C 133.37312 215.92973 133.35751 216.65839 133.625 217.21875 C 133.41541 217.13285 133.17802 217.09401 132.9375 217.09375 C 131.94465 217.09275 131.15734 217.85088 131.15625 218.84375 C 131.15649 219.24612 131.27702 219.63772 131.5 219.9375 C 131.31908 220.19911 131.15243 220.5 130.96875 220.78125 C 130.94871 220.78162 130.92614 220.78025 130.90625 220.78125 C 130.91357 220.54153 130.9375 220.30834 130.9375 220.0625 C 130.9375 218.08268 130.67723 216.30067 130.28125 214.96875 C 130.92948 213.7596 131.40812 212.24133 131.5625 210.53125 C 131.76004 208.34311 131.39493 206.35427 130.6875 204.9375 C 130.82406 204.66677 130.9557 204.38884 131.0625 204.09375 C 131.26121 204.366 131.45791 204.66201 131.59375 205 C 131.69035 204.89129 131.78135 204.77082 131.875 204.65625 C 132.24788 204.79924 132.64237 204.72808 132.9375 204.4375 C 133.35063 204.03072 133.42187 203.32429 133.125 202.78125 C 133.1359 202.76145 133.14555 202.73875 133.15625 202.71875 C 133.52613 202.62965 133.82835 202.4963 133.96875 202.3125 C 134.14711 202.079 134.02538 201.8262 133.71875 201.625 C 134.14542 201.44822 134.40646 201.15699 134.375 200.84375 C 134.3602 200.69901 134.31126 200.54905 134.1875 200.4375 C 134.2472 200.27115 134.28807 200.10802 134.34375 199.9375 C 134.64575 200.0807 134.88707 200.09831 135.0625 200 C 135.49518 199.75762 135.4373 198.81216 134.96875 197.5625 C 135.05575 197.11474 135.12789 196.65329 135.1875 196.1875 C 135.1618 196.1925 135.11965 196.21365 135.09375 196.21875 C 135.08775 195.98346 135.0517 195.73266 135 195.5 C 134.89517 195.03035 134.72323 194.60292 134.46875 194.21875 C 133.59462 192.67279 131.83759 191.64844 129.84375 191.6875 z M 126.78125 224.65625 C 126.8881 225.0854 127.02265 225.46797 127.15625 225.8125 C 127.10081 225.9119 127.08139 226.04216 127.03125 226.15625 L 126.875 226.34375 C 126.67097 226.0029 126.46143 225.68586 126.25 225.4375 C 126.42908 225.23889 126.62505 224.98057 126.78125 224.65625 z "
         id="path4175" >
    <set attributeName="visibility" attributeType="CSS" to="visible" begin="2s" dur="0.2s" fill="freeze"/>
    <set attributeName="visibility" attributeType="CSS" to="hidden" begin="2.2s" dur="0.4s" fill="freeze"/> 
    
    </path>  
    </g>
   </g>    
   <g
     inkscape:label="Ebene 1"
     inkscape:groupmode="layer"
     id="layer8">
    <g transform="translate(0,0)">
      <path
         style="fill:#333338;fill-opacity:1;stroke:#1c1c49;stroke-width:0.226229;stroke-linejoin:round;stroke-miterlimit:4;stroke-opacity:1;stroke-dasharray:none;visibility:hidden"
         d="M 129.84375 191.6875 C 127.0193 191.7429 124.76055 193.91147 124.8125 196.5625 C 124.85179 198.56889 126.21752 200.25672 128.09375 200.9375 C 127.69557 201.50981 127.38734 202.22558 127.15625 202.96875 C 125.32891 203.63805 123.78027 206.42431 123.46875 209.875 C 123.45723 210.0026 123.44537 210.12371 123.4375 210.25 C 123.4279 210.09626 123.41764 209.84375 123.40625 209.84375 C 123.39047 209.84375 123.35568 210.12498 123.34375 210.40625 C 123.19731 210.6224 123.04925 210.83549 122.90625 211.0625 C 121.26563 213.66699 120.36202 216.19322 120.46875 217.59375 C 120.06432 218.6674 119.67111 219.9356 119.3125 221.375 C 118.2568 225.61236 117.99569 229.43064 118.71875 229.90625 C 119.44181 230.38186 120.8818 227.33111 121.9375 223.09375 C 122.39769 221.24662 122.6994 219.50869 122.84375 218.0625 C 122.95513 217.98541 123.07189 217.903 123.1875 217.8125 C 123.18195 218.0216 123.1875 218.22383 123.1875 218.4375 C 123.1875 219.77212 123.30676 221.01116 123.5 222.09375 L 122.84375 222.65625 L 122.375 224.625 L 123.53125 225.5625 C 122.83034 226.89294 122.5373 229.40657 122.75 232.375 L 114.34375 244.59375 C 113.66772 245.11334 109.91028 252.53245 110.59375 253.5625 L 110.625 253.5625 C 110.6583 253.5762 110.67811 253.56082 110.71875 253.5625 C 111.98417 253.5878 116.74407 247.64554 116.96875 246.78125 L 123.28125 236.28125 C 123.66288 238.09598 124.18895 239.69718 124.78125 240.9375 C 123.51012 242.22353 122.12228 244.14952 120.9375 246.4375 C 118.49519 251.15398 117.77607 255.61065 119.3125 256.40625 C 120.74596 257.14853 123.6338 254.41658 126 250.21875 C 125.47682 254.53201 126.08694 257.96507 127.5625 258.25 C 129.26132 258.57804 131.46175 254.62123 132.46875 249.40625 C 132.99721 246.66949 133.08548 244.15411 132.8125 242.3125 C 133.44025 240.50804 133.50584 237.35687 132.90625 233.875 C 132.84991 233.54786 132.78416 233.25429 132.71875 232.9375 C 133.38145 232.99307 133.52343 231.5928 133.21875 229.4375 L 133.46875 228.6875 L 132.96875 227.9375 C 132.76442 226.93797 132.47462 225.85057 132.125 224.6875 C 132.02948 224.36973 131.9132 224.05929 131.8125 223.75 L 134.59375 219.90625 C 134.55215 219.88525 134.50923 219.86355 134.46875 219.84375 C 134.64654 219.56525 134.71836 219.22987 134.71875 218.875 C 134.71898 218.38564 134.53559 217.91824 134.21875 217.59375 C 134.72512 217.64315 135.28222 217.40798 135.625 216.875 C 136.06622 216.18894 136.02803 215.29053 135.59375 214.71875 C 135.59175 214.71575 135.59572 214.6904 135.59375 214.6875 L 135.5625 214.6875 C 134.95484 214.38491 134.1913 214.65736 133.75 215.34375 C 133.37312 215.92973 133.35751 216.65839 133.625 217.21875 C 133.41541 217.13285 133.17802 217.09401 132.9375 217.09375 C 131.94465 217.09275 131.15734 217.85088 131.15625 218.84375 C 131.15649 219.24612 131.27702 219.63772 131.5 219.9375 C 131.31908 220.19911 131.15243 220.5 130.96875 220.78125 C 130.94871 220.78162 130.92614 220.78025 130.90625 220.78125 C 130.91357 220.54153 130.9375 220.30834 130.9375 220.0625 C 130.9375 218.08268 130.67723 216.30067 130.28125 214.96875 C 130.92948 213.7596 131.40812 212.24133 131.5625 210.53125 C 131.76004 208.34311 131.39493 206.35427 130.6875 204.9375 C 130.82406 204.66677 130.9557 204.38884 131.0625 204.09375 C 131.26121 204.366 131.45791 204.66201 131.59375 205 C 131.69035 204.89129 131.78135 204.77082 131.875 204.65625 C 132.24788 204.79924 132.64237 204.72808 132.9375 204.4375 C 133.35063 204.03072 133.42187 203.32429 133.125 202.78125 C 133.1359 202.76145 133.14555 202.73875 133.15625 202.71875 C 133.52613 202.62965 133.82835 202.4963 133.96875 202.3125 C 134.14711 202.079 134.02538 201.8262 133.71875 201.625 C 134.14542 201.44822 134.40646 201.15699 134.375 200.84375 C 134.3602 200.69901 134.31126 200.54905 134.1875 200.4375 C 134.2472 200.27115 134.28807 200.10802 134.34375 199.9375 C 134.64575 200.0807 134.88707 200.09831 135.0625 200 C 135.49518 199.75762 135.4373 198.81216 134.96875 197.5625 C 135.05575 197.11474 135.12789 196.65329 135.1875 196.1875 C 135.1618 196.1925 135.11965 196.21365 135.09375 196.21875 C 135.08775 195.98346 135.0517 195.73266 135 195.5 C 134.89517 195.03035 134.72323 194.60292 134.46875 194.21875 C 133.59462 192.67279 131.83759 191.64844 129.84375 191.6875 z M 126.78125 224.65625 C 126.8881 225.0854 127.02265 225.46797 127.15625 225.8125 C 127.10081 225.9119 127.08139 226.04216 127.03125 226.15625 L 126.875 226.34375 C 126.67097 226.0029 126.46143 225.68586 126.25 225.4375 C 126.42908 225.23889 126.62505 224.98057 126.78125 224.65625 z "
         id="path4175" >
      <set attributeName="visibility" attributeType="CSS" to="visible" begin="2.2s" dur="0.5s" fill="freeze"/>
      <set attributeName="visibility" attributeType="CSS" to="hidden" begin="2.4s" dur="0.4s" fill="freeze"/> 
       
      </path>  
      </g>
   </g>    
   <g
     inkscape:label="Ebene 1"
     inkscape:groupmode="layer"
     id="layer9">
    <g transform="translate(0,0)">
      <path
         style="fill:#333338;fill-opacity:1;stroke:#1c1c49;stroke-width:0.226229;stroke-linejoin:round;stroke-miterlimit:4;stroke-opacity:1;stroke-dasharray:none;visibility:hidden"
         d="M 129.84375 191.6875 C 127.0193 191.7429 124.76055 193.91147 124.8125 196.5625 C 124.85179 198.56889 126.21752 200.25672 128.09375 200.9375 C 127.69557 201.50981 127.38734 202.22558 127.15625 202.96875 C 125.32891 203.63805 123.78027 206.42431 123.46875 209.875 C 123.44862 210.09794 123.44656 210.31251 123.4375 210.53125 C 123.42448 210.12901 123.4255 209.84375 123.40625 209.84375 C 123.37757 209.84375 123.35563 210.48605 123.34375 211.28125 C 123.31501 211.33605 123.27848 211.38216 123.25 211.4375 C 121.83056 214.19533 121.13143 216.84118 121.375 218.21875 C 121.07102 219.31245 120.79111 220.62183 120.5625 222.0625 C 119.8781 226.37543 119.95719 230.18261 120.71875 230.59375 C 121.38512 230.9535 122.33798 228.58288 123.03125 225.09375 L 123.5625 225.53125 C 123.53027 225.5507 123.49877 225.57087 123.46875 225.59375 C 122.62815 226.23436 122.86585 228.10497 123.90625 230.40625 L 113.90625 244.28125 C 113.2192 244.78617 109.3076 252.11173 109.96875 253.15625 L 110 253.15625 L 110 253.1875 C 110.033 253.2019 110.05315 253.18496 110.09375 253.1875 C 111.35834 253.24 116.25677 247.3905 116.5 246.53125 L 125.15625 232.75 C 125.23984 232.88694 125.31842 233.01815 125.40625 233.15625 C 125.37723 233.5991 125.32147 234.03948 125.3125 234.5 C 125.26278 237.05308 125.53593 239.36185 126.03125 241.09375 C 124.94511 242.66916 123.94341 245.30078 123.34375 248.40625 C 122.33675 253.62123 122.89493 258.10946 124.59375 258.4375 C 126.29257 258.76554 128.46175 254.80873 129.46875 249.59375 C 129.96158 247.04151 130.08283 244.67792 129.875 242.875 C 130.34376 242.0694 130.73368 240.90526 131.03125 239.53125 C 131.11283 239.59446 131.20073 239.659 131.28125 239.71875 C 130.83269 241.51439 130.67551 243.99029 130.90625 246.71875 C 131.35382 252.01117 133.1197 256.17705 134.84375 256.03125 C 136.5678 255.88545 137.60382 251.47992 137.15625 246.1875 C 136.92501 243.45308 136.37108 241.03904 135.625 239.34375 C 135.53456 237.50803 134.1604 234.49972 131.90625 231.5 L 132.59375 231.03125 L 133.40625 228.78125 L 132.21875 226.9375 L 130.46875 225.625 L 130.625 225.4375 L 130.25 225.25 C 130.33689 224.96733 130.42807 224.66761 130.5 224.34375 C 130.65195 224.38656 130.80291 224.40251 130.96875 224.40625 C 131.12527 224.40925 131.2923 224.37505 131.4375 224.34375 L 134.6875 220.03125 C 134.6464 220.00935 134.60256 219.9582 134.5625 219.9375 C 134.74624 219.66289 134.83573 219.35478 134.84375 219 C 134.85455 218.51076 134.68478 218.04998 134.375 217.71875 C 134.88019 217.77905 135.42708 217.55673 135.78125 217.03125 C 136.23713 216.35485 136.23437 215.42474 135.8125 214.84375 L 135.78125 214.8125 C 135.18024 214.4969 134.42472 214.76079 133.96875 215.4375 C 133.57935 216.01524 133.52588 216.74651 133.78125 217.3125 C 133.57355 217.2221 133.33421 217.19293 133.09375 217.1875 C 132.10115 217.1651 131.27246 217.91363 131.25 218.90625 C 131.242 219.30853 131.37727 219.69549 131.59375 220 C 131.40724 220.25765 131.22094 220.53527 131.03125 220.8125 C 130.98721 220.81236 130.94958 220.80959 130.90625 220.8125 C 130.91421 220.56268 130.9375 220.31901 130.9375 220.0625 C 130.9375 218.08268 130.67723 216.30067 130.28125 214.96875 C 130.92948 213.7596 131.40812 212.24133 131.5625 210.53125 C 131.76004 208.34311 131.39493 206.35427 130.6875 204.9375 C 130.82406 204.66677 130.9557 204.38884 131.0625 204.09375 C 131.26121 204.366 131.45791 204.66201 131.59375 205 C 131.69035 204.89129 131.78135 204.77082 131.875 204.65625 C 132.24788 204.79924 132.64237 204.72808 132.9375 204.4375 C 133.35063 204.03072 133.42187 203.32429 133.125 202.78125 C 133.1359 202.76145 133.14555 202.73875 133.15625 202.71875 C 133.52613 202.62965 133.82835 202.4963 133.96875 202.3125 C 134.14711 202.079 134.02538 201.8262 133.71875 201.625 C 134.14542 201.44822 134.40646 201.15699 134.375 200.84375 C 134.3602 200.69901 134.31126 200.54905 134.1875 200.4375 C 134.2472 200.27115 134.28807 200.10802 134.34375 199.9375 C 134.64575 200.0807 134.88707 200.09831 135.0625 200 C 135.49518 199.75762 135.4373 198.81216 134.96875 197.5625 C 135.05575 197.11474 135.12789 196.65329 135.1875 196.1875 C 135.1618 196.1925 135.11965 196.21365 135.09375 196.21875 C 135.08775 195.98346 135.0517 195.73266 135 195.5 C 134.89517 195.03035 134.72323 194.60292 134.46875 194.21875 C 133.59462 192.67279 131.83759 191.64844 129.84375 191.6875 z M 126.03125 225.65625 C 126.05752 225.76841 126.06683 225.88911 126.09375 226 C 125.99019 225.94261 125.88142 225.8621 125.78125 225.8125 C 125.86989 225.77892 125.94595 225.72061 126.03125 225.65625 z "
         id="path4175" > 
      <set attributeName="visibility" attributeType="CSS" to="visible" begin="2.4s" dur="0.2s" fill="freeze"/>
      <set attributeName="visibility" attributeType="CSS" to="hidden" begin="2.6s" dur="0.4s" fill="freeze"/> 
        
      </path>  
      </g>
   </g>    
   <g
     inkscape:label="Ebene 1"
     inkscape:groupmode="layer"
     id="layer10">
    <g transform="translate(0,0)">
      <path
         style="fill:#333338;fill-opacity:1;stroke:#1c1c49;stroke-width:0.226229;stroke-linejoin:round;stroke-miterlimit:4;stroke-opacity:1;stroke-dasharray:none;visibility:hidden"
         d="M 131.09375 192.15625 C 128.27666 191.94507 125.85451 193.91839 125.65625 196.5625 C 125.51388 198.46083 126.57045 200.1916 128.21875 201.09375 C 127.76142 201.70662 127.37751 202.47895 127.125 203.3125 C 125.31386 204.00607 123.77814 206.76044 123.46875 210.1875 C 123.44862 210.41045 123.44656 210.625 123.4375 210.84375 C 123.42432 210.40867 123.42637 210.15625 123.40625 210.15625 C 123.36601 210.15625 123.3125 211.23467 123.3125 212.5625 C 123.3125 213.89033 123.36601 214.96875 123.40625 214.96875 C 123.44649 214.96875 123.46875 213.89033 123.46875 212.5625 C 123.50309 212.92996 123.55953 213.28292 123.625 213.625 C 123.43083 214.63259 123.33973 215.56908 123.3125 216.40625 C 123.2354 217.14452 123.1875 217.92916 123.1875 218.75 C 123.1875 219.49586 123.21711 220.19577 123.28125 220.875 C 123.26003 221.39389 123.24537 221.92391 123.25 222.5 L 122.9375 222.75 L 122.375 224.6875 L 123.40625 225.59375 C 123.41375 225.68473 123.39823 225.78474 123.40625 225.875 C 122.85952 226.81142 122.93173 228.7233 123.5 231.0625 L 113.625 244.34375 C 112.93059 244.8385 108.88555 252.10211 109.53125 253.15625 L 109.5625 253.15625 L 109.5625 253.1875 C 109.5953 253.2024 109.64696 253.1835 109.6875 253.1875 C 110.95118 253.2586 115.90039 247.48057 116.15625 246.625 L 123.5 235.34375 C 122.92871 238.29151 122.93777 240.92344 123.40625 242.5 C 122.7934 244.17927 122.33531 246.43226 122.1875 248.9375 C 121.87467 254.23959 123.0228 258.61684 124.75 258.71875 C 126.4772 258.82066 128.12467 254.61459 128.4375 249.3125 C 128.6261 246.11595 128.27348 243.25982 127.59375 241.46875 C 127.75012 241.19957 127.87947 240.92843 128.03125 240.625 C 128.48338 241.19305 128.94519 241.71736 129.375 242.09375 C 129.20582 243.8415 129.28631 246.06047 129.71875 248.4375 C 130.66941 253.66304 132.79774 257.65343 134.5 257.34375 C 136.20226 257.03407 136.82566 252.53804 135.875 247.3125 C 135.18361 243.51211 133.85795 240.37576 132.53125 239.0625 C 132.30335 237.30328 131.67869 235.13519 130.6875 232.875 C 130.61651 232.71312 130.54161 232.56474 130.46875 232.40625 C 130.48518 232.28073 130.51697 232.15483 130.53125 232.03125 L 130.96875 232.4375 L 132.5 231.40625 L 133.34375 229.15625 L 132.1875 227.28125 L 130.46875 225.9375 L 130.59375 225.75 L 130.34375 225.625 C 130.33107 225.56551 130.32558 225.49749 130.3125 225.4375 C 130.385 225.19049 130.43852 224.93304 130.5 224.65625 C 130.65131 224.70129 130.80298 224.71257 130.96875 224.71875 C 131.1252 224.72375 131.29185 224.717 131.4375 224.6875 L 134.75 220.40625 C 134.7092 220.38375 134.66475 220.36505 134.625 220.34375 C 134.81276 220.07188 134.92425 219.72962 134.9375 219.375 C 134.9555 218.88597 134.77362 218.42951 134.46875 218.09375 C 134.973 218.16145 135.51313 217.95771 135.875 217.4375 C 136.34079 216.76789 136.35081 215.83714 135.9375 215.25 C 135.9355 215.247 135.93853 215.22165 135.9375 215.21875 L 135.90625 215.21875 C 135.30995 214.89434 134.55964 215.14262 134.09375 215.8125 C 133.69589 216.38445 133.62799 217.11781 133.875 217.6875 C 133.66866 217.594 133.4591 217.54022 133.21875 217.53125 C 132.22658 217.49425 131.38083 218.25782 131.34375 219.25 C 131.32985 219.65212 131.44428 220.03609 131.65625 220.34375 C 131.46597 220.59863 131.2875 220.88185 131.09375 221.15625 C 131.03229 221.15516 130.96638 221.18267 130.90625 221.1875 C 130.91557 220.91756 130.9375 220.65285 130.9375 220.375 C 130.9375 218.39518 130.67723 216.61317 130.28125 215.28125 C 130.93198 214.07081 131.40774 212.52675 131.5625 210.8125 C 131.75857 208.64067 131.41553 206.66491 130.71875 205.25 C 130.85008 204.98919 130.95868 204.72101 131.0625 204.4375 C 131.28245 204.76729 131.47015 205.14478 131.59375 205.5625 C 131.70017 205.4634 131.80221 205.35523 131.90625 205.25 C 132.26398 205.42751 132.67879 205.4177 133 205.15625 C 133.44965 204.79023 133.55684 204.09986 133.3125 203.53125 C 133.3252 203.51255 133.3624 203.48765 133.375 203.46875 C 133.75163 203.41495 134.03039 203.29474 134.1875 203.125 C 134.38708 202.90936 134.31754 202.63547 134.03125 202.40625 C 134.47269 202.27049 134.75178 202.03356 134.75 201.71875 C 134.749 201.57326 134.70646 201.40398 134.59375 201.28125 C 134.66885 201.12128 134.74099 200.97701 134.8125 200.8125 C 135.09965 200.98354 135.34733 201.01883 135.53125 200.9375 C 135.98486 200.737 136.00487 199.78827 135.65625 198.5 C 135.78508 198.06244 135.89673 197.61434 136 197.15625 C 135.9739 197.15925 135.93255 197.15325 135.90625 197.15625 C 135.92245 196.92144 135.9049 196.70525 135.875 196.46875 C 135.8149 195.99131 135.68587 195.53145 135.46875 195.125 C 134.74429 193.5035 133.08239 192.30538 131.09375 192.15625 z M 127.03125 225.8125 C 127.06926 225.92459 127.11596 226.02109 127.15625 226.125 L 127.03125 226.28125 C 127.02564 226.12323 127.03879 225.97342 127.03125 225.8125 z "
         id="path4179" >
      <set attributeName="visibility" attributeType="CSS" to="visible" begin="2.6s" dur="0.2s" fill="freeze"/>
      <set attributeName="visibility" attributeType="CSS" to="hidden" begin="2.8s" dur="0.4s" fill="freeze"/> 
       
      </path>  
      </g>
   </g>   
   <animateMotion path="M 0 0 L 105 0" begin="0s" dur="3s" fill="freeze"/>
   <animate repeatCount="indefinite" dur="35s" to="0.7" from="0.9" attributeName="opacity" attributType="CSS" />
   </g>
  </g> 
  <g
     inkscape:label="Ebene 1"
     inkscape:groupmode="layer"
     id="layer1">
    <g transform="translate(0,0)">
    <image 
	    xlink:href="file:///C:/Users/Chris/Desktop/Memory/DynamicSystems/MageFormular/ordnung2/labels2.png"
	    width="1112"
	    height="622"
	    id="image12"
	    x="0"
      	    y="-175" >
    <animateMotion path="M 0 0 L 0 0" begin="0s" dur="0s" fill="freeze"/>
    <animate repeatCount="indefinite" dur="35s" to="0.7" from="0.9" attributeName="opacity" attributType="CSS" />
    </image>
    </g>
  </g> 
</svg>
