<svg xmlns="http://www.w3.org/2000/svg" xmlns:xml="http://www.w3.org/XML/1998/namespace" xmlns:xlink="http://www.w3.org/1999/xlink" id="root" xml:space="preserve" width="600" height="800" onload="OnLoadEvent(evt)" onmousemove="get_coordo(evt)">

<script><![CDATA[
var compati = new Array(true,true,true,true,true,true)
var comments = new Array(" "," "," "," "," "," ")
var nb_comments = 6

function write_compati(evt)
{
	svgdoc = evt.target.ownerDocument
	for (var i = 0 ; i < nb_comments ; i ++)
	{
		if (compati[i])
			svgdoc.getElementById("coche" + i.toString()).setAttributeNS(null, "stroke" , "blue")
		else
			svgdoc.getElementById("coche" + i.toString()).setAttributeNS(null, "stroke" , "none")
		svgdoc.getElementById("comment" + i.toString()).firstChild.data = comments[i]
	}
}

function get_coordo(evt)
{
	evt.target.ownerDocument.getElementById("cX").firstChild.data = evt.clientX
	evt.target.ownerDocument.getElementById("cY").firstChild.data = evt.clientY
	evt.target.ownerDocument.getElementById("sX").firstChild.data = evt.screenX
	evt.target.ownerDocument.getElementById("sY").firstChild.data = evt.screenY
}

]]></script>
<script>

function changeFill() {
    document.getElementById("hexagon").style.fill = "rgb(" + Math.floor(255 * Math.random()) + ", " + Math.floor(255 * Math.random()) + ", " + Math.floor(255 * Math.random()) + ")";
}
</script>
<text x="50" fill="green" y="10">ptc 4 
values: 10 
prepprogrammed</text>
<text x="50" y="150">hexagon plane</text>
<text x="50" y="165">  adjustable area</text>
<text x="50" y="240">Test animation</text>
<text x="220" y="220" font-size="18" fill="blue" fill-opacity="0.3">cX : <tspan id="cX" fill="red" fill-opacity="0.7">0</tspan></text> 
<text x="220" y="240" font-size="18" fill="blue" fill-opacity="0.3">cY : <tspan id="cY" fill="red" fill-opacity="0.7">0</tspan></text> 
<text x="220" y="260" font-size="18" fill="blue" fill-opacity="0.3">scX : <tspan id="sX" fill="red" fill-opacity="0.7">0</tspan></text> 
<text x="220" y="280" font-size="18"  fill="bue" fill-opacity="0.3">scY : <tspan id="sY" fill="red" fill-opacity="0.7">0</tspan></text> 

<rect id="go" x="20" y="350" width="300" height="650" style="fill:green;fill-opacity:0.2"/>

<g>
<text x="20" y="480" font-size="10"></text>

</g>

<g>

<text x="150" y="350">Test animatio2</text>


</g>

<style
     id="style4">
        .room{
            fill:       lime;
            fill-opacity:0.4;
            stroke:     #999;
            stroke-width:   3;
            stroke-color:   blue;
        }
        .room:hover{
            fill:       red;
            fill-opacity:0.5;
        }
        .hexa{
            fill:       blue;
            fill-opacity:0.4;
            stroke:     #999;
            stroke-width:   2;
        }
        .hexa:hover{
            fill:       lightblue;
            fill-opacity:0.4;
        }
    </style>
 <g transform="translate(0,100)">
 <g transform="translate(100,200)">
<polyline id="hexagon" points="87,0 174,50 174,150 87,200 0,150 0,50 87,0" class="hexa" onclick="changeFill()"/>
<animateTransform attributeName="transform" attributeType="XML" type="scale" from="1" to="0.2" additive="sum" begin="0.1s" dur="0.1s" fill="freeze"/> 
</g>
<g transform="translate(130,200)">
<polyline id="hexagon" points="87,0 174,50 174,150 87,200 0,150 0,50 87,0" class="room" onclick="changeFill()"/>
<animateTransform attributeName="transform" attributeType="XML" type="scale" from="1" to="0.2" additive="sum" begin="0.1s" dur="0.1s" fill="freeze"/> 
</g>
<g transform="translate(160,200)">
<polyline points="87,0 174,50 174,150 87,200 0,150 0,50 87,0" class="hexa" onclick="changeFill()"/>
<animateTransform attributeName="transform" attributeType="XML" type="scale" from="1" to="0.2" additive="sum" begin="0.1s" dur="0.1s" fill="freeze"/> 
</g>
<g transform="translate(190,200)">
<polyline id="hexagon" points="87,0 174,50 174,150 87,200 0,150 0,50 87,0" class="hexa" onclick="changeFill()"/>
<animateTransform attributeName="transform" attributeType="XML" type="scale" from="1" to="0.2" additive="sum" begin="0.1s" dur="0.1s" fill="freeze"/> 
</g>
<g transform="translate(220,200)">
<polyline id="hexagon" points="87,0 174,50 174,150 87,200 0,150 0,50 87,0" class="hexa" onclick="changeFill()"/>
<animateTransform attributeName="transform" attributeType="XML" type="scale" from="1" to="0.2" additive="sum" begin="0.1s" dur="0.1s" fill="freeze"/> 
</g>
<g transform="translate(115,170)">
<polyline id="hexagon" points="87,0 174,50 174,150 87,200 0,150 0,50 87,0" class="hexa" onclick="changeFill()"/>
<animateTransform attributeName="transform" attributeType="XML" type="scale" from="1" to="0.2" additive="sum" begin="0.1s" dur="0.1s" fill="freeze"/> 
</g>
<g transform="translate(145,170)">
<polyline id="hexagon" points="87,0 174,50 174,150 87,200 0,150 0,50 87,0" class="room" onclick="changeFill()"/>
<animateTransform attributeName="transform" attributeType="XML" type="scale" from="1" to="0.2" additive="sum" begin="0.1s" dur="0.1s" fill="freeze"/> 
</g>
<g transform="translate(175,170)">
<polyline id="hexagon" points="87,0 174,50 174,150 87,200 0,150 0,50 87,0" class="room" onclick="changeFill()"/>
<animateTransform attributeName="transform" attributeType="XML" type="scale" from="1" to="0.2" additive="sum" begin="0.1s" dur="0.1s" fill="freeze"/> 
</g>
<g transform="translate(130,140)">
<polyline id="hexagon" points="87,0 174,50 174,150 87,200 0,150 0,50 87,0" class="hexa" onclick="changeFill()"/>
<animateTransform attributeName="transform" attributeType="XML" type="scale" from="1" to="0.2" additive="sum" begin="0.1s" dur="0.1s" fill="freeze"/> 
</g>
<g transform="translate(160,140)">
<polyline id="hexagon" points="87,0 174,50 174,150 87,200 0,150 0,50 87,0" class="hexa" onclick="changeFill()"/>
<animateTransform attributeName="transform" attributeType="XML" type="scale" from="1" to="0.2" additive="sum" begin="0.1s" dur="0.1s" fill="freeze"/> 
</g>
</g>
  <g
     transform="matrix(0.2823838,0.10225553,-0.2823838,0.10225553,420.923,74.495491)"
     >

    <polyline id="hexagon" points="87,0 174,50 174,150 87,200 0,150 0,50 87,0" class="room" onclick="changeFill()"/>
     
    <g transform="translate(-130,700)">
 <g transform="translate(100,260)">
<polyline id="hexagon" points="87,0 174,50 174,150 87,200 0,150 0,50 87,0" class="hexa" onclick="changeFill()"/>
<animateTransform attributeName="transform" attributeType="XML" type="scale" from="1" to="0.4" additive="sum" begin="0.1s" dur="0.1s" fill="freeze"/> 
</g>
<g transform="translate(160,260)">
<polyline id="hexagon" points="87,0 174,50 174,150 87,200 0,150 0,50 87,0" class="room" onclick="changeFill()"/>
<animateTransform attributeName="transform" attributeType="XML" type="scale" from="1" to="0.4" additive="sum" begin="0.1s" dur="0.1s" fill="freeze"/> 
</g>
<g transform="translate(210,260)">
<polyline points="87,0 174,50 174,150 87,200 0,150 0,50 87,0" class="hexa" onclick="changeFill()"/>
<animateTransform attributeName="transform" attributeType="XML" type="scale" from="1" to="0.4" additive="sum" begin="0.1s" dur="0.1s" fill="freeze"/> 
</g>
<g transform="translate(270,260)">
<polyline id="hexagon" points="87,0 174,50 174,150 87,200 0,150 0,50 87,0" class="hexa" onclick="changeFill()"/>
<animateTransform attributeName="transform" attributeType="XML" type="scale" from="1" to="0.4" additive="sum" begin="0.1s" dur="0.1s" fill="freeze"/> 
</g>
<g transform="translate(280,260)">
<polyline id="hexagon" points="87,0 174,50 174,150 87,200 0,150 0,50 87,0" class="hexa" onclick="changeFill()"/>
<animateTransform attributeName="transform" attributeType="XML" type="scale" from="1" to="0.4" additive="sum" begin="0.1s" dur="0.1s" fill="freeze"/> 
</g>
<g transform="translate(175,230)">
<polyline id="hexagon" points="87,0 174,50 174,150 87,200 0,150 0,50 87,0" class="hexa" onclick="changeFill()"/>
<animateTransform attributeName="transform" attributeType="XML" type="scale" from="1" to="0.4" additive="sum" begin="0.1s" dur="0.1s" fill="freeze"/> 
</g>
<g transform="translate(205,200)">
<polyline id="hexagon" points="87,0 174,50 174,150 87,200 0,150 0,50 87,0" class="room" onclick="changeFill()"/>
<animateTransform attributeName="transform" attributeType="XML" type="scale" from="1" to="0.4" additive="sum" begin="0.1s" dur="0.1s" fill="freeze"/> 
</g>
<g transform="translate(265,200)">
<polyline id="hexagon" points="87,0 174,50 174,150 87,200 0,150 0,50 87,0" class="room" onclick="changeFill()"/>
<animateTransform attributeName="transform" attributeType="XML" type="scale" from="1" to="0.4" additive="sum" begin="0.1s" dur="0.1s" fill="freeze"/> 
</g>


</g>
    <rect
       class="room"
       width="94"
       height="123"
       x="-221.99988"
       y="711" />
     
    <rect
       class="room"
       y="711"
       x="-316.99988"
       height="123"
       width="94"
       />

<ellipse cx="-316" cy="715" rx="280" ry="4" stroke="black" stroke-width="2px" style="fill:red">
<animateColor attributeName="fill" attributeType="CSS" from="blue" to="lime" begin="0.1s" dur="1s"  repeatCount="indefinite" />
      <animateTransform attributeName="transform" attributeType="XML" type="rotate" from="0" to="45" begin="0.1s" dur="0.1s" fill="freeze"/> 
      <animateMotion path="M  0 0 L 680 690" begin="0.1s" dur="0.3s" fill="freeze"/>
</ellipse>
<ellipse cx="340" cy="655" rx="280" ry="4" stroke="black" stroke-width="2px" style="fill:red">
<animateColor attributeName="fill" attributeType="CSS" from="blue" to="lime" begin="0.1s" dur="1s"  repeatCount="indefinite" />
      <animateTransform attributeName="transform" attributeType="XML" type="rotate" from="0" to="45" begin="0.1s" dur="0.1s" fill="freeze"/> 
      <animateMotion path="M  0 0 L 280 290" begin="0.1s" dur="0.3s" fill="freeze"/>
</ellipse>

      <ellipse cx="-430" cy="380" rx="30" ry="12" stroke="black" stroke-width="2px" style="fill:blue">
      </ellipse>
     <ellipse cx="-316" cy="715" rx="280" ry="4" stroke="black" stroke-width="2px" style="fill:red">
<animateColor attributeName="fill" attributeType="CSS" from="blue" to="lime" begin="0.1s" dur="1s"  repeatCount="indefinite" />
      <animateTransform attributeName="transform" attributeType="XML" type="rotate" from="0" to="45" begin="0.1s" dur="0.1s" fill="freeze"/> 
      <animateMotion path="M  0 0 L 480 290" begin="0.1s" dur="0.3s" fill="freeze"/>
</ellipse>
     <ellipse cx="-248" cy="785" rx="30" ry="12" stroke="black" stroke-width="2px" style="fill:purple">
<animateColor attributeName="fill" attributeType="CSS" from="blue" to="lime" begin="1s" dur="6s"  repeatCount="indefinite" />
</ellipse>
    <ellipse cx="-148" cy="785" rx="30" ry="12" stroke="black" stroke-width="2px" style="fill:purple">
<animateColor attributeName="fill" attributeType="CSS" from="blue" to="lime" begin="1s" dur="6s"  repeatCount="indefinite" />
</ellipse>
    <rect
       class="room"
       width="94"
       height="123"
       x="-411.99988"
       y="711" />
    <rect
       class="room"
       y="711"
       x="-506.99988"
       height="123"
       width="94"
        />
    <rect
       class="room"
       width="94"
       height="123"
       x="-601.99988"
       y="711" />
    
    <rect
       class="room"
       width="94"
       height="123"
       x="-221.99988"
       y="587" />
    <rect
       class="room" 
       y="587"
       x="-316.99988"
       height="123"
       width="94"
       
       />
    <rect
       
       class="room"
       width="94"
       height="123"
       x="-411.99988"
       y="587" />
    <rect
       class="room"
       y="587"
       x="-506.99988"
       height="123"
       width="94"
       
        />
    <rect
       class="room"
      
       width="94"
       height="123"
       x="-601.99988"
       y="587" />
    <rect
       class="room"
       y="587"
       x="-696.99988"
       height="123"
       width="94"
       
       />
    <rect
       
       class="room"
       width="94"
       height="123"
       x="-221.99988"
       y="463" />
    <rect
       class="room"
       y="463"
       x="-316.99988"
       height="123"
       width="94"
       
      />
    <rect
       
       class="room"
       width="94"
       height="123"
       x="-411.99988"
       y="463" />
    <rect
       class="room"
       y="463"
       x="-506.99988"
       height="123"
       width="94"
       
      />
    <rect
      
       class="room"
       width="94"
       height="123"
       x="-601.99988"
       y="463" />
    <rect
       class="room"
       y="463"
       x="-696.99988"
       height="123"
       width="94"
       
        />
    <rect
       class="room"
       id="rect3843"
       width="94"
       height="123"
       x="-221.99988"
       y="339" />
    <rect
       class="room"
       y="339"
       x="-316.99988"
       height="123"
       width="94"
       
       />
    <rect
       class="room"
       id="rect3847"
       width="94"
       height="123"
       x="-411.99988"
       y="339" />
    <rect
       class="room"
       y="339"
       x="-506.99988"
       height="123"
       width="94"
       id="rect3849"
       />
    <rect
       class="room"
       id="rect3851"
       width="94"
       height="123"
       x="-601.99988"
       y="339" />
    <rect
       class="room"
       y="339"
       x="-696.99988"
       height="123"
       width="94"
       id="rect3853"
        />
    <rect
       class="room"
       id="rect3855"
       width="94"
       height="123"
       x="-221.99988"
       y="215" />
    <rect
       class="room"
       y="215"
       x="-316.99988"
       height="123"
       width="94"
       id="rect3857"
        />
    <rect
       class="room"
       id="rect3859"
       width="94"
       height="123"
       x="-411.99988"
       y="215" />
    <rect
       class="room"
       y="215"
       x="-506.99988"
       height="123"
       width="94"
       id="rect3861"
       />
    <rect
       class="room"
       id="rect3863"
       width="94"
       height="123"
       x="-601.99988"
       y="215" />
    <rect 
       class="room"
       y="215"
       x="-696.99988"
       height="123"
       width="94"
       id="rect3865"
       />
    <rect
       class="room"
       id="rect3867"
       width="94"
       height="123"
       x="-221.99988"
       y="91" />
    <rect
       class="room"
       y="91"
       x="-316.99988"
       height="123"
       width="94"
       id="rect3869"
        />
    <rect
      class="room"
       id="rect3871"
       width="94"
       height="123"
       x="-411.99988"
       y="91" />
    <rect
       class="room"
       y="91"
       x="-506.99988"
       height="123"
       width="94"
       id="rect3873"
        />
    <rect
       class="room"
       id="rect3875"
       width="94"
       height="123"
       x="-601.99988"
       y="91" />
    <rect
       class="room"
       y="91"
       x="-696.99988"
       height="123"
       width="94"
       id="rect3877"
        />
  </g>

</svg>


