<svg xmlns="http://www.w3.org/2000/svg" xmlns:xml="http://www.w3.org/XML/1998/namespace" xmlns:xlink="http://www.w3.org/1999/xlink" id="root" xml:space="preserve" width="600" height="800" onload="OnLoadEvent(evt)">

<script><![CDATA[







}
var click = false; object=""
var x_obj = 0, y_obj = 0,x_trans = 0,y_tans = 0

functin clicked(evt)
{
   click = true
   object = 
]]></script>
<script>

function changeFill() {
    document.getElementById("hexagon").style.fill = "rgb(" + Math.floor(255 * Math.random()) + ", " + Math.floor(255 * Math.random()) + ", " + Math.floor(255 * Math.random()) + ")";
}
</script>
<text x="50" font-color="green" y="10">ptc 4 
values: 10 
prepprogrammed</text>
<text x="50" y="150">hexagon plane</text>
<text x="50" y="165">  adjustable area</text>
<text x="50" y="240">Test animation</text>

<rect id="go" x="20" y="350" width="300" height="650" style="fill:green;fill-opacity:0.7"/>

<g>
<text x="20" y="480" font-size="10"></text>

</g>

<g>

<text x="150" y="350">Test animatio2</text>


</g>

<style
     id="style4">
        .room{
            fill:       red;
            fill-opacity:0.9;
            stroke:     #999;
            stroke-width:   3;
            stroke-color:   blue;
        }
        .room:hover{
            fill:       lightblue;
            fill-opacity:0.9;
        }
        .hexa{
            fill:       blue;
            fill-opacity:0.9;
            stroke:     #999;
            stroke-width:   2;
        }
        .hexa:hover{
            fill:       lightblue;
            fill-opacity:0.7;
        }
    </style>
 <g transform="translate(0,100)">
 <g transform="translate(100,200)">
<polyline id="hexagon" points="87,0 174,50 174,150 87,200 0,150 0,50 87,0" class="hexa" onclick="changeFill()"/>
<animateTransform attributeName="transform" attributeType="XML" type="scale" from="1" to="0.2" additive="sum" begin="0.1s" dur="0.1s" fill="freeze"/> 
</g>
<g transform="translate(130,200)">
<polyline id="hexagon" points="87,0 174,50 174,150 87,200 0,150 0,50 87,0" class="room" onclick="changeFill()"/>
<animateTransform attributeName="transform" attributeType="XML" type="scale" from="1" to="0.2" additive="sum" begin="0.1s" dur="0.1s" fill="freeze"/> 
</g>
<g transform="translate(160,200)">
<polyline points="87,0 174,50 174,150 87,200 0,150 0,50 87,0" class="hexa" onclick="changeFill()"/>
<animateTransform attributeName="transform" attributeType="XML" type="scale" from="1" to="0.2" additive="sum" begin="0.1s" dur="0.1s" fill="freeze"/> 
</g>
<g transform="translate(190,200)">
<polyline id="hexagon" points="87,0 174,50 174,150 87,200 0,150 0,50 87,0" class="hexa" onclick="changeFill()"/>
<animateTransform attributeName="transform" attributeType="XML" type="scale" from="1" to="0.2" additive="sum" begin="0.1s" dur="0.1s" fill="freeze"/> 
</g>
<g transform="translate(220,200)">
<polyline id="hexagon" points="87,0 174,50 174,150 87,200 0,150 0,50 87,0" class="hexa" onclick="changeFill()"/>
<animateTransform attributeName="transform" attributeType="XML" type="scale" from="1" to="0.2" additive="sum" begin="0.1s" dur="0.1s" fill="freeze"/> 
</g>
<g transform="translate(115,170)">
<polyline id="hexagon" points="87,0 174,50 174,150 87,200 0,150 0,50 87,0" class="hexa" onclick="changeFill()"/>
<animateTransform attributeName="transform" attributeType="XML" type="scale" from="1" to="0.2" additive="sum" begin="0.1s" dur="0.1s" fill="freeze"/> 
</g>
<g transform="translate(145,170)">
<polyline id="hexagon" points="87,0 174,50 174,150 87,200 0,150 0,50 87,0" class="room" onclick="changeFill()"/>
<animateTransform attributeName="transform" attributeType="XML" type="scale" from="1" to="0.2" additive="sum" begin="0.1s" dur="0.1s" fill="freeze"/> 
</g>
<g transform="translate(175,170)">
<polyline id="hexagon" points="87,0 174,50 174,150 87,200 0,150 0,50 87,0" class="room" onclick="changeFill()"/>
<animateTransform attributeName="transform" attributeType="XML" type="scale" from="1" to="0.2" additive="sum" begin="0.1s" dur="0.1s" fill="freeze"/> 
</g>
<g transform="translate(130,140)">
<polyline id="hexagon" points="87,0 174,50 174,150 87,200 0,150 0,50 87,0" class="hexa" onclick="changeFill()"/>
<animateTransform attributeName="transform" attributeType="XML" type="scale" from="1" to="0.2" additive="sum" begin="0.1s" dur="0.1s" fill="freeze"/> 
</g>
<g transform="translate(160,140)">
<polyline id="hexagon" points="87,0 174,50 174,150 87,200 0,150 0,50 87,0" class="hexa" onclick="changeFill()"/>
<animateTransform attributeName="transform" attributeType="XML" type="scale" from="1" to="0.2" additive="sum" begin="0.1s" dur="0.1s" fill="freeze"/> 
</g>
</g>
  <g
     transform="matrix(0.2823838,0.10225553,-0.2823838,0.10225553,420.923,74.495491)"
     >

    <polyline id="hexagon" points="87,0 174,50 174,150 87,200 0,150 0,50 87,0" class="room" onclick="changeFill()"/>
     
    <g transform="translate(100,900)">
<polyline id="hexagon" points="87,0 174,50 174,150 87,200 0,150 0,50 87,0" class="room" onclick="changeFill()"/>
<animateTransform attributeName="transform" attributeType="XML" type="scale" from="0.1" to="0.8" additive="sum" begin="0.1s" dur="0.1s" fill="freeze"/> 
</g>
    <g transform="translate(130,900)">
<polyline points="87,0 174,50 174,150 87,200 0,150 0,50 87,0" class="hexa" onclick="changeFill()"/>
<animateTransform attributeName="transform" attributeType="XML" type="scale" from="0.1" to="0.8" additive="sum" begin="0.1s" dur="0.1s" fill="freeze"/> 
</g> 
    <g transform="translate(190,930)">
<polyline id="hexagon" points="87,0 174,50 174,150 87,200 0,150 0,50 87,0" class="room" onclick="changeFill()"/>
<animateTransform attributeName="transform" attributeType="XML" type="scale" from="0.1" to="0.8" additive="sum" begin="0.1s" dur="0.1s" fill="freeze"/> 
</g>
    <g transform="translate(115,930)">
<polyline id="hexagon" points="87,0 174,50 174,150 87,200 0,150 0,50 87,0" class="room" onclick="changeFill()"/>
<animateTransform attributeName="transform" attributeType="XML" type="scale" from="0.1" to="0.8" additive="sum" begin="0.1s" dur="0.1s" fill="freeze"/> 
</g>
    <g transform="translate(145,930)">
<polyline id="hexagon" points="87,0 174,50 174,150 87,200 0,150 0,50 87,0" class="room" onclick="changeFill()"/>
<animateTransform attributeName="transform" attributeType="XML" type="scale" from="0.1" to="0.8" additive="sum" begin="0.1s" dur="0.1s" fill="freeze"/> 
</g>
    <g transform="translate(130,960)">
<polyline id="hexagon" points="87,0 174,50 174,150 87,200 0,150 0,50 87,0" class="room" onclick="changeFill()"/>
<animateTransform attributeName="transform" attributeType="XML" type="scale" from="0.1" to="0.8" additive="sum" begin="0.1s" dur="0.1s" fill="freeze"/> 
</g>
    <g transform="translate(160, 960)">
<polyline id="hexagon" points="87,0 174,50 174,150 87,200 0,150 0,50 87,0" class="room" onclick="changeFill()"/>
<animateTransform attributeName="transform" attributeType="XML" type="scale" from="0.1" to="0.8" additive="sum" begin="0.1s" dur="0.1s" fill="freeze"/> 
</g>
    <rect
       class="room"
       width="94"
       height="123"
       x="-221.99988"
       y="711" />
     
    <rect
       class="room"
       y="711"
       x="-316.99988"
       height="123"
       width="94"
       />
     <ellipse cx="-316" cy="715" rx="30" ry="12" stroke="black" stroke-width="2px" style="fill:blue">
<animateColor attributeName="fill" attributeType="CSS" from="blue" to="lime" begin="1s" dur="6s"  repeatCount="indefinite" />
</ellipse>
    <rect
       class="room"
       width="94"
       height="123"
       x="-411.99988"
       y="711" />
    <rect
       class="room"
       y="711"
       x="-506.99988"
       height="123"
       width="94"
        />
    <rect
       class="room"
       width="94"
       height="123"
       x="-601.99988"
       y="711" />
    
    <rect
       class="room"
       width="94"
       height="123"
       x="-221.99988"
       y="587" />
    <rect
       class="room" 
       y="587"
       x="-316.99988"
       height="123"
       width="94"
       
       />
    <rect
       
       class="room"
       width="94"
       height="123"
       x="-411.99988"
       y="587" />
    <rect
       class="room"
       y="587"
       x="-506.99988"
       height="123"
       width="94"
       
        />
    <rect
       class="room"
      
       width="94"
       height="123"
       x="-601.99988"
       y="587" />
    <rect
       class="room"
       y="587"
       x="-696.99988"
       height="123"
       width="94"
       
       />
    <rect
       
       class="room"
       width="94"
       height="123"
       x="-221.99988"
       y="463" />
    <rect
       class="room"
       y="463"
       x="-316.99988"
       height="123"
       width="94"
       
      />
    <rect
       
       class="room"
       width="94"
       height="123"
       x="-411.99988"
       y="463" />
    <rect
       class="room"
       y="463"
       x="-506.99988"
       height="123"
       width="94"
       
      />
    <rect
      
       class="room"
       width="94"
       height="123"
       x="-601.99988"
       y="463" />
    <rect
       class="room"
       y="463"
       x="-696.99988"
       height="123"
       width="94"
       
        />
    <rect
       class="room"
       id="rect3843"
       width="94"
       height="123"
       x="-221.99988"
       y="339" />
    <rect
       class="room"
       y="339"
       x="-316.99988"
       height="123"
       width="94"
       
       />
    <rect
       class="room"
       id="rect3847"
       width="94"
       height="123"
       x="-411.99988"
       y="339" />
    <rect
       class="room"
       y="339"
       x="-506.99988"
       height="123"
       width="94"
       id="rect3849"
       />
    <rect
       class="room"
       id="rect3851"
       width="94"
       height="123"
       x="-601.99988"
       y="339" />
    <rect
       class="room"
       y="339"
       x="-696.99988"
       height="123"
       width="94"
       id="rect3853"
        />
    <rect
       class="room"
       id="rect3855"
       width="94"
       height="123"
       x="-221.99988"
       y="215" />
    <rect
       class="room"
       y="215"
       x="-316.99988"
       height="123"
       width="94"
       id="rect3857"
        />
    <rect
       class="room"
       id="rect3859"
       width="94"
       height="123"
       x="-411.99988"
       y="215" />
    <rect
       class="room"
       y="215"
       x="-506.99988"
       height="123"
       width="94"
       id="rect3861"
       />
    <rect
       class="room"
       id="rect3863"
       width="94"
       height="123"
       x="-601.99988"
       y="215" />
    <rect 
       class="room"
       y="215"
       x="-696.99988"
       height="123"
       width="94"
       id="rect3865"
       />
    <rect
       class="room"
       id="rect3867"
       width="94"
       height="123"
       x="-221.99988"
       y="91" />
    <rect
       class="room"
       y="91"
       x="-316.99988"
       height="123"
       width="94"
       id="rect3869"
        />
    <rect
      class="room"
       id="rect3871"
       width="94"
       height="123"
       x="-411.99988"
       y="91" />
    <rect
       class="room"
       y="91"
       x="-506.99988"
       height="123"
       width="94"
       id="rect3873"
        />
    <rect
       class="room"
       id="rect3875"
       width="94"
       height="123"
       x="-601.99988"
       y="91" />
    <rect
       class="room"
       y="91"
       x="-696.99988"
       height="123"
       width="94"
       id="rect3877"
        />
  </g>

</svg>


