<svg xmlns="http://www.w3.org/2000/svg" xmlns:xml="http://www.w3.org/XML/1998/namespace" xmlns:xlink="http://www.w3.org/1999/xlink" xmlns:dc="http://purl.org/dc/elements/1.1/"
   xmlns:cc="http://creativecommons.org/ns#" xmlns:rdf="http://www.w3.org/1999/02/22-rdf-syntax-ns#" xmlns:sodipodi="http://sodipodi.sourceforge.net/DTD/sodipodi-0.dtd" xmlns:inkscape="http://www.inkscape.org/namespaces/inkscape" id="root" xml:space="preserve" width="700" height="800" onload="OnLoadEvent(evt)" onmousemove="get_coordo(evt)">

<script><![CDATA[
var compati = new Array(true,true,true,true,true,true)
var comments = new Array(" "," "," "," "," "," ")
var nb_comments = 6

function write_compati(evt)
{
	svgdoc = evt.target.ownerDocument
	for (var i = 0 ; i < nb_comments ; i ++)
	{
		if (compati[i])
			svgdoc.getElementById("coche" + i.toString()).setAttributeNS(null, "stroke" , "blue")
		else
			svgdoc.getElementById("coche" + i.toString()).setAttributeNS(null, "stroke" , "none")
		svgdoc.getElementById("comment" + i.toString()).firstChild.data = comments[i]
	}
}

function get_coordo(evt)
{
	evt.target.ownerDocument.getElementById("cX").firstChild.data = evt.clientX
	evt.target.ownerDocument.getElementById("cY").firstChild.data = evt.clientY 
	evt.target.ownerDocument.getElementById("sX").firstChild.data = evt.screenX
	evt.target.ownerDocument.getElementById("sY").firstChild.data = evt.screenY
}

]]></script>
<script>

function changeFill() {
    document.getElementById("hexagon").style.fill = "rgb(" + Math.floor(255 * Math.random()) + ", " + Math.floor(255 * Math.random()) + ", " + Math.floor(255 * Math.random()) + ")";
}
</script>
<g>
<text x="50" fill="green" y="10">Set to ptc6 with 'subroutinE'
 
values: 2,25,50,100,125,150 
refresh mode</text>
</g>
<g>
<text x="50" y="90"  fill="yellow" fill-opacity="0.8" >screen:
 Obsverve the ptc functions in 2d </text>
<text x="50" y="110"  fill="yellow" fill-opacity="0.8"> and transform to 3d. </text>

<animate attributeType="CSS" attributeName="opacity" 
from="1" to="0" begin="10s" dur="0.2s" fill="freeze" />

</g>
<g>
	
/* text what to do */
<text x="50" y="580"  fill="green" fill-opacity="0.8" >screen:
 first step see all formatted point</text>
<text x="50" y="600"  fill="green" fill-opacity="0.8"> and transform to 3d.
secondly just highight point needed </text>
<text x="50" y="620"  fill="green" fill-opacity="0.8" >
 * move them accordingly to the given wxm plot size</text>
<text x="50" y="640"  fill="green" fill-opacity="0.8">
 * add possible connection between points </text>
<text x="50" y="660"  fill="green" fill-opacity="0.8">   connecting the vertices (points) </text>
<text x="50" y="680"  fill="green" fill-opacity="0.8"> *Exp*> 'fofina2 foBrad'</text>
<text x="50" y="700" fill="green" > plot two layers</text>
<text x="50" y="720"  fill="green" fill-opacity="0.8"> see the possible connection to transform up to 2d</text>
<text x="50" y="740"  fill="green" fill-opacity="0.8" >
 * enable 'experimentRAW11 ...</text>





<text x="50" y="150">hexagon plane</text>
<text x="50" y="165">  adjustable area</text>
<text x="230" y="440" font-size="18" fill="green" fill-opacity="0.4">clientX : <tspan id="cX" fill="red" fill-opacity="0.8">0</tspan></text> 
<text x="230" y="460" font-size="18" fill="blue" fill-opacity="0.4">clientY : <tspan id="cY" fill="yellow" fill-opacity="0.8">0</tspan></text> 
<text x="230" y="480" font-size="18" fill="green" fill-opacity="0.4">screenX : <tspan id="sX" fill="red" fill-opacity="0.8">0</tspan></text> 
<text x="230" y="500" font-size="18"  fill="blue" fill-opacity="0.4">screenY : <tspan id="sY" fill="yellow" fill-opacity="0.8">0</tspan></text> 

<rect id="go" x="20" y="350" width="300" height="650" style="fill:#1e1c1ecc;fill-opacity:0.2"/>
</g>



<g>

<text x="150" y="350" fill="yellow" fill-opacity="0.8">fit Haskell vector field of experiment3 into Svg</text>



</g>

<style
     id="style4">
        .room{
            fill:      #c830d8e7;
            fill-opacity:0.4;
            stroke:     #999;
            stroke-width:   3;
            stroke-color:   blue;
        }
        .room:hover{
            fill:       #30d8c4e7;
            fill-opacity:0.5;
        }
        .hexa{
            fill:      yellow;
            fill-opacity:0.4;
            stroke:     #999;
            stroke-width:   2;
        }
        .hexa:hover{
            fill:       green;
            fill-opacity:0.4;
        }
        .project{
            fill:       lime;
            fill-opacity:0.0;
            stroke:     #999;
            stroke-width:  0;
            
        }
        .project:hover{
            fill:       lime;
            fill-opacity:0.4;
        }
        .check{
            fill:       blue;
            fill-opacity:0.3;
            stroke:     #999;
            stroke-width:  0;
            
        }
        .check:hover{
            fill:     lime;
            fill-opacity:0.4;
        }
        .suite{
            fill:      #37ebd1e7;
            fill-opacity:0.4;
            stroke:     #999;
            stroke-width:  0;
            
        }
        .suite:hover{
            fill:     orange;
            fill-opacity:0.5;
        }

       



    </style>
<!-- the three honies --> <g transform="translate(0,0)">
<g>
 <ellipse cx="16" cy="99" rx="5" ry="7" stroke="black" stroke-width="2px" style="fill:lightblue">
</ellipse>
 <ellipse cx="42" cy="109" rx="5" ry="7" stroke="black" stroke-width="2px" style="fill:lightblue">
</ellipse>
 <ellipse cx="70" cy="117" rx="5" ry="7" stroke="black" stroke-width="2px" style="fill:lightblue">
</ellipse>
 <ellipse cx="96" cy="128" rx="5" ry="7" stroke="black" stroke-width="2px" style="fill:lightblue">
</ellipse>
 <ellipse cx="124" cy="137" rx="5" ry="7" stroke="black" stroke-width="2px" style="fill:lightblue">
</ellipse>
 <ellipse cx="148" cy="148" rx="5" ry="7" stroke="black" stroke-width="2px" style="fill:lightblue">
</ellipse>
 <ellipse cx="52" cy="86" rx="5" ry="7" stroke="black" stroke-width="2px" style="fill:lightblue">
</ellipse>
 <ellipse cx="79" cy="97" rx="5" ry="7" stroke="black" stroke-width="2px" style="fill:lightblue">
</ellipse>
 <ellipse cx="105" cy="106" rx="5" ry="7" stroke="black" stroke-width="2px" style="fill:lightblue">
</ellipse>
 <ellipse cx="131" cy="116" rx="5" ry="7" stroke="black" stroke-width="2px" style="fill:lightblue">
</ellipse>
 <ellipse cx="160" cy="126" rx="5" ry="7" stroke="black" stroke-width="2px" style="fill:lightblue">
</ellipse>
 <ellipse cx="183" cy="134" rx="5" ry="7" stroke="black" stroke-width="2px" style="fill:lightblue">
</ellipse>
 <ellipse cx="85" cy="74" rx="5" ry="7" stroke="black" stroke-width="2px" style="fill:lightblue">
</ellipse>
 <ellipse cx="112" cy="83" rx="5" ry="7" stroke="black" stroke-width="2px" style="fill:lightblue">
</ellipse>
 <ellipse cx="139" cy="93" rx="5" ry="7" stroke="black" stroke-width="2px" style="fill:lightblue">
</ellipse>
 <ellipse cx="166" cy="102" rx="5" ry="7" stroke="black" stroke-width="2px" style="fill:lightblue">
</ellipse>
 <ellipse cx="192" cy="112" rx="5" ry="7" stroke="black" stroke-width="2px" style="fill:lightblue">
</ellipse>
 <ellipse cx="216" cy="122" rx="5" ry="7" stroke="black" stroke-width="2px" style="fill:lightblue">
</ellipse>
 <ellipse cx="120" cy="62" rx="5" ry="7" stroke="black" stroke-width="2px" style="fill:lightblue">
</ellipse>
 <ellipse cx="147" cy="70" rx="5" ry="7" stroke="black" stroke-width="2px" style="fill:lightblue">
</ellipse>
 <ellipse cx="174" cy="81" rx="5" ry="7" stroke="black" stroke-width="2px" style="fill:lightblue">
</ellipse>
 <ellipse cx="201" cy="91" rx="5" ry="7" stroke="black" stroke-width="2px" style="fill:lightblue">
</ellipse>
 <ellipse cx="228" cy="100" rx="5" ry="7" stroke="black" stroke-width="2px" style="fill:lightblue">
</ellipse>
 <ellipse cx="252" cy="109" rx="5" ry="7" stroke="black" stroke-width="2px" style="fill:lightblue">
</ellipse>
 <ellipse cx="154" cy="48" rx="5" ry="7" stroke="black" stroke-width="2px" style="fill:lightblue">
</ellipse>
 <ellipse cx="182" cy="58" rx="5" ry="7" stroke="black" stroke-width="2px" style="fill:lightblue">
</ellipse>
 <ellipse cx="209" cy="69" rx="5" ry="7" stroke="black" stroke-width="2px" style="fill:lightblue">
</ellipse>
 <ellipse cx="235" cy="77" rx="5" ry="7" stroke="black" stroke-width="2px" style="fill:lightblue">
</ellipse>
 <ellipse cx="263" cy="87" rx="5" ry="7" stroke="black" stroke-width="2px" style="fill:lightblue">
</ellipse>
 <ellipse cx="287" cy="96" rx="5" ry="7" stroke="black" stroke-width="2px" style="fill:lightblue">
</ellipse>
 <ellipse cx="190" cy="35" rx="5" ry="7" stroke="black" stroke-width="2px" style="fill:lightblue">
</ellipse>
 <ellipse cx="270" cy="66" rx="5" ry="7" stroke="black" stroke-width="2px" style="fill:lightblue">
</ellipse>
 <ellipse cx="216" cy="46" rx="5" ry="7" stroke="black" stroke-width="2px" style="fill:lightblue">
</ellipse>
 <ellipse cx="245" cy="55" rx="5" ry="7" stroke="black" stroke-width="2px" style="fill:lightblue">
</ellipse>
 <ellipse cx="298" cy="75" rx="5" ry="7" stroke="black" stroke-width="2px" style="fill:lightblue">
</ellipse>
 <ellipse cx="322" cy="83" rx="5" ry="7" stroke="black" stroke-width="2px" style="fill:lightblue">
</ellipse>
 </g> </g>  <g transform="translate(0,200)">
<g>
 <ellipse cx="16" cy="99" rx="10" ry="12" stroke="black" stroke-width="2px" style="fill:lime">
</ellipse>
 <ellipse cx="42" cy="109" rx="10" ry="12" stroke="black" stroke-width="2px" style="fill:lime">
</ellipse>
 <ellipse cx="70" cy="117" rx="10" ry="12" stroke="black" stroke-width="2px" style="fill:lime">
</ellipse>
 <ellipse cx="96" cy="128" rx="10" ry="12" stroke="black" stroke-width="2px" style="fill:lime">
</ellipse>
 <ellipse cx="124" cy="137" rx="10" ry="12" stroke="black" stroke-width="2px" style="fill:lime">
</ellipse>
 <ellipse cx="148" cy="148" rx="10" ry="12" stroke="black" stroke-width="2px" style="fill:lime">
</ellipse>
 <ellipse cx="52" cy="86" rx="10" ry="12" stroke="black" stroke-width="2px" style="fill:lime">
</ellipse>
 <ellipse cx="79" cy="97" rx="10" ry="12" stroke="black" stroke-width="2px" style="fill:lime">
</ellipse>
 <ellipse cx="105" cy="106" rx="10" ry="12" stroke="black" stroke-width="2px" style="fill:lime">
</ellipse>
 <ellipse cx="131" cy="116" rx="10" ry="12" stroke="black" stroke-width="2px" style="fill:lime">
</ellipse>
 <ellipse cx="160" cy="126" rx="10" ry="12" stroke="black" stroke-width="2px" style="fill:lime">
</ellipse>
 <ellipse cx="183" cy="134" rx="10" ry="12" stroke="black" stroke-width="2px" style="fill:lime">
</ellipse>
 <ellipse cx="85" cy="74" rx="10" ry="12" stroke="black" stroke-width="2px" style="fill:lime">
</ellipse>
 <ellipse cx="112" cy="83" rx="10" ry="12" stroke="black" stroke-width="2px" style="fill:lime">
</ellipse>
 <ellipse cx="139" cy="93" rx="10" ry="12" stroke="black" stroke-width="2px" style="fill:lime">
</ellipse>
 <ellipse cx="166" cy="102" rx="10" ry="12" stroke="black" stroke-width="2px" style="fill:lime">
</ellipse>
 <ellipse cx="192" cy="112" rx="10" ry="12" stroke="black" stroke-width="2px" style="fill:lime">
</ellipse>
 <ellipse cx="216" cy="122" rx="10" ry="12" stroke="black" stroke-width="2px" style="fill:lime">
</ellipse>
 <ellipse cx="120" cy="62" rx="10" ry="12" stroke="black" stroke-width="2px" style="fill:lime">
</ellipse>
 <ellipse cx="147" cy="70" rx="10" ry="12" stroke="black" stroke-width="2px" style="fill:lime">
</ellipse>
 <ellipse cx="174" cy="81" rx="10" ry="12" stroke="black" stroke-width="2px" style="fill:lime">
</ellipse>
 <ellipse cx="201" cy="91" rx="10" ry="12" stroke="black" stroke-width="2px" style="fill:lime">
</ellipse>
 <ellipse cx="228" cy="100" rx="10" ry="12" stroke="black" stroke-width="2px" style="fill:lime">
</ellipse>
 <ellipse cx="252" cy="109" rx="10" ry="12" stroke="black" stroke-width="2px" style="fill:lime">
</ellipse>
 <ellipse cx="154" cy="48" rx="10" ry="12" stroke="black" stroke-width="2px" style="fill:lime">
</ellipse>
 <ellipse cx="182" cy="58" rx="10" ry="12" stroke="black" stroke-width="2px" style="fill:lime">
</ellipse>
 <ellipse cx="209" cy="69" rx="10" ry="12" stroke="black" stroke-width="2px" style="fill:lime">
</ellipse>
 <ellipse cx="235" cy="77" rx="10" ry="12" stroke="black" stroke-width="2px" style="fill:lime">
</ellipse>
 <ellipse cx="263" cy="87" rx="10" ry="12" stroke="black" stroke-width="2px" style="fill:lime">
</ellipse>
 <ellipse cx="287" cy="96" rx="10" ry="12" stroke="black" stroke-width="2px" style="fill:lime">
</ellipse>
 <ellipse cx="190" cy="35" rx="10" ry="12" stroke="black" stroke-width="2px" style="fill:lime">
</ellipse>
 <ellipse cx="270" cy="66" rx="10" ry="12" stroke="black" stroke-width="2px" style="fill:lime">
</ellipse>
 <ellipse cx="216" cy="46" rx="10" ry="12" stroke="black" stroke-width="2px" style="fill:lime">
</ellipse>
 <ellipse cx="245" cy="55" rx="10" ry="12" stroke="black" stroke-width="2px" style="fill:lime">
</ellipse>
 <ellipse cx="298" cy="75" rx="10" ry="12" stroke="black" stroke-width="2px" style="fill:lime">
</ellipse>
 <ellipse cx="322" cy="83" rx="10" ry="12" stroke="black" stroke-width="2px" style="fill:lime">
</ellipse>
 </g> </g><polyline id="hexagon" points="117.77085162423178,68.77085162423178 135.8519637462236,41.851963746223575 186.7708516242318,43.77085162423178 206.8519637462236,15.851963746223575 256.7708516242318,17.77085162423178" stroke="green" style="fill:red;fill-opacity:0.6;" onclick="changeFill()"/><polyline id="hexagon" points="117.77085162423178,68.77085162423178 150.7708516242318,56.77085162423178 215.05863708399366,72.05863708399366 221.7708516242318,30.77085162423178 256.7708516242318,17.77085162423178" stroke="green" style="fill:blue;fill-opacity:0.6;" onclick="changeFill()"/><polyline id="hexagon" points="117.77085162423178,150.7708516242318,186.7708516242318,221.7708516242318,256.7708516242318 68.77085162423178,56.77085162423178,43.77085162423178,30.77085162423178,17.77085162423178" stroke="green" style="fill:green;fill-opacity:0.6;" onclick="changeFill()"/><!-- Two overlap -->
<g transform="translate(100,30);rotate(90);" >
	


</g>


<!-- three hexagons to experiment on test write parts of hexagon -->


<g transform="translate(-70,150)">

<g transform="translate(100,200)">
<polyline id="hexagon" points="87,0 174,50 174,150 87,200 0,150 0,50 87,0" class="hexa" onclick="changeFill()"/>
<animateTransform attributeName="transform" attributeType="XML" type="scale" from="1" to="0.5" additive="sum" begin="0.1s" dur="0.1s" fill="freeze"/> 
</g>
<g transform="translate(188,200)">
<polyline id="hexagon" points="87,0 174,50 174,175 87,200 0,175 0,50 87,0" class="room" onclick="changeFill()"/>
<animateTransform attributeName="transform" attributeType="XML" type="scale" from="1" to="0.5" additive="sum" begin="0.1s" dur="0.1s" fill="freeze"/> 
</g>
</g>

 <g transform="translate(-70,250)">

<g transform="translate(100,200)">
<polyline id="hexagon" points="87,0 174,50 174,150 87,200 0,150 0,50 87,0" class="room" onclick="changeFill()"/>
<animateTransform attributeName="transform" attributeType="XML" type="scale" from="1" to="0.5" additive="sum" begin="0.1s" dur="0.1s" fill="freeze"/> 
</g>
</g>


  <g
     transform="matrix(0.282383,0.10225553,-0.2823838,0.10225553,420.923,74.495491)"
     >

    <polyline id="hexagon" points="87,0 174,50 174,150 87,200 0,150 0,50 87,0" class="room" onclick="changeFill()"/>
/* The top three big hexagons plotted 
-----------------------------------------------------------------------------------------------*/     
    <g transform="translate(-430,370)">
<g transform="translate(599,370)">
<polyline id="hexagon" points="87,0 174,50 174,150 87,200 0,150 0,50 87,0" class="hexa" onclick="changeFill()"/>
<animateTransform attributeName="transform" attributeType="XML" type="scale" from="1" to="3.1" additive="sum" begin="0.1s" dur="0.1s" fill="freeze"/> 
<animateMotion path="M 25, 25 m -19.25, 0 a 19.25,19.25 0 1,0 37.5,0 a 1.25,19.25 0 1,0 -37.5,0" begin="1s" dur="5s"  repeatCount="5" />

</g>
<g transform="translate(150,370)">
<polyline id="hexagon" points="87,0 174,50 174,150 87,200 0,150 0,50 87,0" class="suite" onclick="changeFill()"/>
<animateTransform attributeName="transform" attributeType="XML" type="scale" from="1" to="3.1" additive="sum" begin="0.1s" dur="0.1s" fill="freeze"/> 
</g>
<g transform="translate(400,370)">
<polyline id="hexagon" points="87,0 174,50 174,150 87,200 0,150 0,50 87,0" class="project" onclick="changeFill()"/>
<animateTransform attributeName="transform" attributeType="XML" type="scale" from="1" to="3.1" additive="sum" begin="0.1s" dur="0.1s" fill="freeze"/> 
<animate attributeType="CSS" attributeName="opacity" from="1" to="0" dur="13s" repeatCount="indefinite" /></g>

<g transform="translate(388,-51)">
<polyline id="hexagon" points="87,0 174,50 174,150 87,200 0,150 0,50 87,0" class="room" onclick="changeFill()"/>
<animateTransform attributeName="transform" attributeType="XML" type="scale" from="1" to="3.1" additive="sum" begin="0.1s" dur="0.1s" fill="freeze"/> 
</g>

<g transform="translate(950,720)">
<polyline id="hexagon" points="87,0 174,50 174,150 87,200 0,150 0,50 87,0" class="project" onclick="changeFill()"/>
<animateTransform attributeName="transform" attributeType="XML" type="scale" from="1" to="3.1" additive="sum" begin="0.1s" dur="0.1s" fill="freeze"/> 
</g>
<g transform="translate(950,820)">
<polyline id="hexagon" points="87,0 174,50 174,150 87,200 0,150 0,50 87,0" class="project" onclick="changeFill()"/>
<animateTransform attributeName="transform" attributeType="XML" type="scale" from="1" to="3.1" additive="sum" begin="0.1s" dur="0.1s" fill="freeze"/> 
</g>
<g transform="translate(850,720)">
<polyline id="hexagon" points="87,0 174,50 174,150 87,200 0,150 0,50 87,0" class="project" onclick="changeFill()"/>
<animateTransform attributeName="transform" attributeType="XML" type="scale" from="1" to="3.1" additive="sum" begin="0.1s" dur="0.1s" fill="freeze"/> 
</g>

</g>
/* end of top three hexagons plotted 
------------------------------------------------------------------------------------------------------*/
/* 1-9-2020 added case for ptc5 overview
  role model on how to transform to 58 / 135 degree to ? ....
  when changing up the file dont delete this paragraph */
<g>
    <rect
       class="room"
       width="94"
       height="123"
       x="-221.99988"
       y="711" />
     
    <rect
       class="room"
       y="711"
       x="-316.99988"
       height="123"
       width="94"
       />
  <g transform="translate(29250,29900)" >
<polyline id="hexagon" points="87,0 174,50 174,150 87,200 0,150 0,50 87,0" class="hexa" onclick="changeFill()"/>
</g>
 <g transform="translate(29150,30000)" >
<polyline id="hexagon" points="87,0 174,50 174,150 87,200 0,150 0,50 87,0" class="room" onclick="changeFill()"/>
</g>
 <g transform="translate(37500,38530)" >
<polyline id="hexagon" points="87,0 174,50 174,150 87,200 0,150 0,50 87,0" class="hexa" onclick="changeFill()"/>
</g>
 <g transform="translate(37600,38530)" >
<polyline id="hexagon" points="87,0 174,50 174,150 87,200 0,150 0,50 87,0" class="room" onclick="changeFill()"/>
</g>
 <g transform="translate(37600,38430)" >
<polyline id="hexagon" points="87,0 174,50 174,150 87,200 0,150 0,50 87,0" class="room" onclick="changeFill()"/>
</g>


<ellipse cx="-316" cy="715" rx="590" ry="4" stroke="black" stroke-width="2px" style="fill:green">
<animateColor attributeName="fill" attributeType="CSS" from="blue" to="lime" begin="0.1s" dur="1s"  repeatCount="indefinite" />
      <animateTransform attributeName="transform" attributeType="XML" type="rotate" from="0" to="45" begin="0.1s" dur="0.1s" fill="freeze"/> 

      <animateMotion path="M  0 0 L 860 879" begin="0.1s" dur="0.3s" fill="freeze"/>
</ellipse>
<ellipse cx="340" cy="655" rx="280" ry="4" stroke="black" stroke-width="2px" style="fill:green">
<animateColor attributeName="fill" attributeType="CSS" from="blue" to="lime" begin="0.1s" dur="1s"  repeatCount="indefinite" />
      <animateTransform attributeName="transform" attributeType="XML" type="rotate" from="0" to="45" begin="0.1s" dur="0.1s" fill="freeze"/> 
      <animateMotion path="M  0 0 L 280 290" begin="0.1s" dur="0.3s" fill="freeze"/>
</ellipse>

      <ellipse cx="-430" cy="380" rx="30" ry="12" stroke="black" stroke-width="2px" style="fill:blue">
      </ellipse>
     <ellipse cx="-316" cy="715" rx="280" ry="4" stroke="black" stroke-width="2px" style="fill:green">
<animateColor attributeName="fill" attributeType="CSS" from="blue" to="lime" begin="0.1s" dur="1s"  repeatCount="indefinite" />
      <animateTransform attributeName="transform" attributeType="XML" type="rotate" from="0" to="45" begin="0.1s" dur="0.1s" fill="freeze"/> 
      <animateMotion path="M  0 0 L 480 290" begin="0.1s" dur="0.3s" fill="freeze"/>
</ellipse>
     <ellipse cx="-248" cy="785" rx="30" ry="12" stroke="black" stroke-width="2px" style="fill:purple">
<animateColor attributeName="fill" attributeType="CSS" from="blue" to="lime" begin="1s" dur="6s"  repeatCount="indefinite" />
</ellipse>
    <ellipse cx="-148" cy="785" rx="30" ry="12" stroke="black" stroke-width="2px" style="fill:purple">
<animateColor attributeName="fill" attributeType="CSS" from="blue" to="lime" begin="1s" dur="6s"  repeatCount="indefinite" />
</ellipse>
<animateTransform attributeName="transform" attributeType="XML" type="rotate" from="1" to="45"  additive="sum" begin="2s" dur="2.0s" fill="freeze"/> 
<animateTransform attributeName="transform" attributeType="XML" type="rotate" from="1" to="-45"  additive="sum" begin="10s" dur="2.0s" fill="freeze"/> 


 <animateTransform attributeName="transform" attributeType="XML" type="rotate" from="1" to="-360"  additive="sum" begin="43s" dur="5.0s" fill="freeze"/> 
<animateTransform attributeName="transform" attributeType="XML" type="rotate" from="1" to="360"  additive="sum" begin="58s" dur="15.0s" repeatCount="1"/> 
</g>
/* go automate add layer to animate 3d svg plot 
a Haskell function will write and automate the layer adding
which way does initiate the animation set on timer or just on click or hover? */
<g transform="translate(500,600)">
<g>
    <ellipse cx="-148" cy="785" rx="30" ry="12" stroke="black" stroke-width="2px" style="fill:purple">
<animateColor attributeName="fill" attributeType="CSS" from="blue" to="lime" begin="1s" dur="6s"  repeatCount="indefinite" />
</ellipse>
<animateTransform attributeName="transform" attributeType="XML" type="rotate" from="1" to="360"  additive="sum" begin="128s" dur="15.0s" repeatCount="2"/> 
<animateMotion path="M 100, 100 m -75, 0 a 75,75 0 1,0 150,0 a 75,75 0 1,0 -150,0" begin="1s" dur="5s"  repeatCount="indefinite" />
</g>
<g>
    <ellipse cx="-148" cy="785" rx="30" ry="12" stroke="black" stroke-width="2px" style="fill:purple">
<animateColor attributeName="fill" attributeType="CSS" from="blue" to="lime" begin="1s" dur="6s"  repeatCount="indefinite" />
</ellipse>
<animateTransform attributeName="transform" attributeType="XML" type="rotate" from="-360" to="-1"  additive="sum" begin="128s" dur="11.0s" repeatCount="2"/> 
<animateMotion path="M -400, -600 m -75, 0 a 75,75 0 1,0 150,0 a 75,75 0 1,0 -150,0" begin="1s" dur="2s"  repeatCount="indefinite" />
</g>

</g>

<g>
    <rect
       class="room"
       width="94"
       height="123"
       x="-411.99988"
       y="711" />
    <rect
       class="room"
       y="711"
       x="-506.99988"
       height="123"
       width="94"
        />
    <rect
       class="room"
       width="94"
       height="123"
       x="-601.99988"
       y="711" />
    
    <rect
       class="room"
       width="94"
       height="123"
       x="-221.99988"
       y="587" />
    <rect
       class="room" 
       y="587"
       x="-316.99988"
       height="123"
       width="94"
       
       />
    <rect
       
       class="room"
       width="94"
       height="123"
       x="-411.99988"
       y="587" />
    <rect
       class="room"
       y="587"
       x="-506.99988"
       height="123"
       width="94"
       
        />
    <rect
       class="room"
      
       width="94"
       height="123"
       x="-601.99988"
       y="587" />
    <rect
       class="room"
       y="587"
       x="-696.99988"
       height="123"
       width="94"
       
       />
    <rect
       
       class="room"
       width="94"
       height="123"
       x="-221.99988"
       y="463" />
    <rect
       class="room"
       y="463"
       x="-316.99988"
       height="123"
       width="94"
       
      />
    <rect
       
       class="room"
       width="94"
       height="123"
       x="-411.99988"
       y="463" />
    <rect
       class="room"
       y="463"
       x="-506.99988"
       height="123"
       width="94"
       
      />
    <rect
      
       class="room"
       width="94"
       height="123"
       x="-601.99988"
       y="463" />
    <rect
       class="room"
       y="463"
       x="-696.99988"
       height="123"
       width="94"
       
        />
    <rect
       class="room"
       id="rect3843"
       width="94"
       height="123"
       x="-221.99988"
       y="339" />
    <rect
       class="room"
       y="339"
       x="-316.99988"
       height="123"
       width="94"
       
       />
    <rect
       class="room"
       id="rect3847"
       width="94"
       height="123"
       x="-411.99988"
       y="339" />
    <rect
       class="room"
       y="339"
       x="-506.99988"
       height="123"
       width="94"
       id="rect3849"
       />
    <rect
       class="room"
       id="rect3851"
       width="94"
       height="123"
       x="-601.99988"
       y="339" />
    <rect
       class="room"
       y="339"
       x="-696.99988"
       height="123"
       width="94"
       id="rect3853"
        />
    <rect
       class="room"
       id="rect3855"
       width="94"
       height="123"
       x="-221.99988"
       y="215" />
    <rect
       class="room"
       y="215"
       x="-316.99988"
       height="123"
       width="94"
       id="rect3857"
        />
    <rect
       class="room"
       id="rect3859"
       width="94"
       height="123"
       x="-411.99988"
       y="215" />
    <rect
       class="room"
       y="215"
       x="-506.99988"
       height="123"
       width="94"
       id="rect3861"
       />
    <rect
       class="room"
       id="rect3863"
       width="94"
       height="123"
       x="-601.99988"
       y="215" />
    <rect 
       class="room"
       y="215"
       x="-696.99988"
       height="123"
       width="94"
       id="rect3865"
       />
    <rect
       class="room"
       id="rect3867"
       width="94"
       height="123"
       x="-221.99988"
       y="91" />
    <rect
       class="room"
       y="91"
       x="-316.99988"
       height="123"	
       width="94"
       id="rect3869"
        />
    <rect
      class="room"
       id="rect3871"
       width="94"
       height="123"
       x="-411.99988"
       y="91" />
    <rect
       class="room"
       y="91"
       x="-506.99988"
       height="123"
       width="94"
       id="rect3873"
        />
    <rect
       class="room"
       id="rect3875"
       width="94"
       height="123"
       x="-601.99988"
       y="91" />
    <rect
       class="room"
       y="91"
       x="-696.99988"
       height="123"
       width="94"
       id="rect3877"
        />
 <animateTransform attributeName="transform" attributeType="XML" type="rotate" from="1" to="45"  additive="sum" begin="0.1" dur="0.1s" fill="freeze"/> 
<animateTransform attributeName="transform" attributeType="XML" type="rotate" from="1" to="-45"  additive="sum" begin="40s" dur="2.0s" fill="freeze"/> 
 </g>
  </g>

</svg>


